<?xml version="1.0" encoding="UTF-8" standalone="no"?>
<!-- Created with Inkscape (http://www.inkscape.org/) -->

<svg
   width="271mm"
   height="271mm"
   viewBox="0 0 271 271"
   version="1.1"
   id="svg1"
   xml:space="preserve"
   xmlns="http://www.w3.org/2000/svg"
   xmlns:svg="http://www.w3.org/2000/svg"><defs
     id="defs1"><clipPath
       id="449a8f4707"><path
         d="m 726.65625,76.800781 h 11.25 v 15.75 h -11.25 z m 0,0"
         clip-rule="nonzero"
         id="path1" /></clipPath></defs><g
     id="layer1"><g
       id="g1"
       transform="matrix(0.35277778,0,0,0.35277778,-35.980588,27.516672)"><path
         fill="#ffffff"
         d="m 115.07732,-56.468336 -0.93815,1.238416 -0.93814,1.24623 -0.60979,-1.050897 -0.60589,-1.050895 1.54794,-0.18752 1.54012,-0.195334 z m 19.41572,-11.200438 -1.11014,1.465004 -1.10622,1.468909 -0.71925,-1.242324 -0.71533,-1.238415 1.82547,-0.226587 1.82937,-0.226587 z m 17.86777,-10.313622 -0.22672,0.296907 -0.0742,-0.125013 -0.0742,-0.12892 0.18372,-0.01953 0.18763,-0.02345 z m -46.36396,52.322098 -0.19936,0.265654 -0.19936,0.261747 -0.25799,-0.445361 0.32835,-0.04298 z m 21.74155,-12.548239 -2.1343,2.820619 -2.13037,2.820619 -2.75972,-4.773958 3.51024,-0.437546 3.51415,-0.437549 z m 18.88409,-10.895717 -1.90756,2.523711 -1.90365,2.519806 -1.23132,-2.129138 -1.22742,-2.133045 6.26995,-0.773521 z m 18.54402,-10.700383 -2.84571,3.766035 -0.92252,-1.593923 -0.91859,-1.590017 2.34145,-0.289094 2.34146,-0.293001 z m 17.98115,-10.372223 -1.02415,1.35171 -0.33227,-0.574282 -0.32833,-0.574281 0.8404,-0.101572 0.84435,-0.105481 z m -64.12621,62.5654001 -1.67695,2.2189913 -1.67693,2.2228978 -1.08279,-1.8791104 -1.08668,-1.875204 2.76362,-0.3437873 z m 20.12713,-11.6106371 -2.39227,3.156593 -2.38445,3.1605 -1.54404,-2.676072 -1.54011,-2.672167 7.86479,-0.976667 z m 18.69648,-10.790237 -4.04185,5.344333 -1.30558,-2.261965 -1.30169,-2.261967 3.32261,-0.414106 3.32651,-0.410201 z m 18.65739,-10.766796 -1.6183,2.148672 -1.62223,2.144763 -1.04758,-1.812697 -1.0476,-1.816603 2.6698,-0.332068 z m 18.6222,-10.743356 -1.19614,1.582203 -1.19223,1.578297 -0.77005,-1.336082 -0.77398,-1.339991 z m 18.54793,-10.700382 -1.42285,1.875202 -0.91469,-1.593922 2.33754,-0.289094 z m 18.39549,-10.618343 -0.10945,0.148452 -0.11336,0.148455 -0.0742,-0.125014 -0.0742,-0.12892 0.18764,-0.01953 z m -122.58444,96.299536 -0.59808,0.789146 -0.59416,0.789157 -0.38307,-0.664144 -0.38699,-0.668033 0.98114,-0.121112 0.98506,-0.121103 z m 22.15588,-12.786546 -2.84179,3.762129 -2.84572,3.762127 -3.6744,-6.360066 4.67901,-0.582095 4.6829,-0.578189 z m 18.73557,-10.80977003 -2.50173,3.31286023 -2.50172,3.3050476 -3.23662,-5.60217234 4.12003,-0.50786723 4.12004,-0.51177468 z m 18.65737,-10.76679597 -2.0991,2.7815524 -2.103,2.785459 -2.72064,-4.7114494 3.46334,-0.425827 z m 18.6613,-10.766795 -1.7082,2.258058 -1.70431,2.258058 -2.20464,-3.820728 2.80662,-0.347694 z m 18.66129,-10.766797 -1.30949,1.734563 -1.3095,1.730659 -0.84433,-1.461097 -0.84824,-1.465003 2.15383,-0.269561 2.15773,-0.265655 z m 18.65739,-10.762889 -0.91079,1.203255 -0.90687,1.203257 -1.1805,-2.039286 1.50103,-0.187519 1.49713,-0.183615 z m 18.69647,-10.790237 -1.07887,1.429844 -0.34789,-0.601628 -0.3518,-0.605536 1.78248,-0.218773 z m 18.58703,-10.719916 -0.086,0.109387 -0.0859,0.113293 -0.0547,-0.09767 -0.0586,-0.09767 0.14072,-0.01563 0.14072,-0.01953 z m -139.17401,105.870888 -2.52908,3.351925 -2.533,3.348024 -1.63394,-2.832337 -1.63785,-2.832339 8.33387,-1.031362 z m 19.79098,-11.415301 -5.97287,7.8993 -1.93102,-3.340213 -1.93102,-3.344114 9.83491,-1.211073 z m 18.65738,-10.766797 -2.58381,3.422251 -2.58772,3.422242 -1.67302,-2.894845 -1.67694,-2.890939 4.26075,-0.527401 4.26074,-0.523493 z m 18.69648,-10.7902355 -2.21637,2.9378195 -2.21636,2.933913 -1.4346,-2.480739 -1.43848,-2.4846449 3.65485,-0.4492679 3.65096,-0.4531742 z m 18.66129,-10.7667962 -1.81765,2.40651186 -1.82158,2.40651164 -1.17659,-2.03537728 -1.17659,-2.03928492 2.99426,-0.3672269 2.99815,-0.3750408 z m 18.6613,-10.7628893 -1.42677,1.87911 -1.41894,1.8830179 -0.91861,-1.5939239 -0.9186,-1.590017 z m 18.65739,-10.766795 -2.0483,2.711232 -1.32904,-2.297125 3.3695,-0.414107 z m 18.69646,-10.790237 -0.65279,0.863375 -0.65669,0.867282 -0.84435,-1.461096 1.07886,-0.136734 z m 18.66129,-10.766795 -0.25409,0.339879 -0.25799,0.339881 -0.16416,-0.289093 -0.16809,-0.285188 0.42216,-0.05079 z M 113.40038,72.34255 l -1.30559,1.730657 -1.30948,1.734559 -0.84825,-1.464999 -0.84434,-1.46501 4.30766,-0.531307 z m 22.08163,-12.743577 -3.4946,4.629414 -3.49851,4.625503 -2.25937,-3.914496 -2.26328,-3.914486 5.75787,-0.711017 z m 18.66128,-10.76289 -3.09979,4.102006 -3.09588,4.098105 -2.00529,-3.465216 -2.00529,-3.469127 5.10117,-0.628979 5.10508,-0.628978 z m 18.65738,-10.766791 -2.69717,3.574608 -2.70108,3.574599 -1.74729,-3.02767 -1.74729,-3.023769 4.44837,-0.550839 4.44446,-0.55084 z m 18.6613,-10.766802 -2.30237,3.047212 -2.30628,3.047202 -1.4893,-2.578401 -1.48539,-2.578411 3.78775,-0.468801 3.79168,-0.468801 z m 18.69648,-10.790232 -1.93493,2.562779 -1.93493,2.558872 -1.24694,-2.164298 -1.25087,-2.164298 3.18187,-0.394574 3.18189,-0.398481 z m 18.66128,-10.7628897 -1.5362,2.0275646 -1.53623,2.0314712 -0.99677,-1.7189372 -0.98896,-1.7150306 2.52516,-0.3125339 2.5291,-0.3125341 z m 18.65739,-10.7667961 -1.1336,1.5040695 -1.13749,1.5040707 -1.46977,-2.5471531 1.87239,-0.2304931 z m 18.66129,-10.7667962 -0.73878,0.980576 -0.73879,0.976668 -0.9538,-1.656429 2.43919,-0.296908 z m 18.69649,-10.790235 -0.36746,0.488334 -0.37135,0.488334 -0.23844,-0.414107 -0.23845,-0.410201 0.6098,-0.07814 z m -181.08179,130.057129 -0.14072,0.18361 -0.14072,0.19143 -0.18762,-0.32037 0.23453,-0.0312 0.23453,-0.0273 z m 23.62565,-13.634317 -3.4946,4.629414 -3.4985,4.625513 -2.26327,-3.914495 -2.25937,-3.914496 5.75786,-0.711008 5.75397,-0.714928 z M 146.7163,78.6948 l -3.61186,4.773959 -3.61187,4.77786 -4.66727,-8.086819 5.9455,-0.73445 z m 18.6222,-10.751169 -3.18186,4.215299 -3.1819,4.211397 -2.06,-3.562888 -2.0561,-3.566797 5.24579,-0.6485 5.2419,-0.648511 z m 18.70039,-10.786333 -2.81445,3.726975 -2.81444,3.723055 -1.82156,-3.152683 -1.81765,-3.148782 4.63208,-0.574283 z m 18.65739,-10.766792 -2.41574,3.195658 -2.41572,3.199568 -1.55967,-2.703424 -1.56358,-2.703414 3.97931,-0.492244 3.9754,-0.492233 z m 18.66128,-10.766801 -2.02092,2.672171 -2.017,2.672161 -2.6112,-4.523923 3.32652,-0.414114 3.32652,-0.410195 z m 18.69648,-10.78632 -1.64958,2.183824 -1.64565,2.179928 -1.06715,-1.847861 -1.06715,-1.843948 2.71672,-0.335966 2.71672,-0.332076 z m 18.62221,-10.743359 -1.22351,1.613457 -1.2235,1.617364 -0.7896,-1.367337 -0.78961,-1.371241 2.01311,-0.246122 2.01311,-0.250027 z m 18.69646,-10.7902356 -0.85215,1.1290288 -0.85606,1.1290286 -1.10232,-1.9064572 1.40723,-0.1758001 z m 18.6613,-10.7667972 -0.45735,0.6055348 -0.45343,0.597722 -0.29317,-0.5078682 -0.29708,-0.5117747 1.50103,-0.1875203 z m 18.69647,-10.7863282 -0.0859,0.109386 -0.086,0.113294 -0.0547,-0.09767 -0.0586,-0.09767 0.14072,-0.01564 0.14072,-0.01953 z m -197.18271,139.343295 -2.18901,2.89874 -2.189,2.89486 -1.41505,-2.45341 -1.41894,-2.44947 3.60795,-0.44537 3.60405,-0.44927 z m 21.70246,-12.52481 -4.09267,5.41856 -4.09267,5.41465 -5.2927,-9.16505 6.74292,-0.83213 6.73903,-0.83603 z m 18.66128,-10.766802 -7.3879,9.782322 -2.38835,-4.13717 -2.39228,-4.137167 6.09013,-0.754002 6.08622,-0.753983 z m 18.65738,-10.762889 -3.29522,4.359843 -3.29915,4.367664 -2.1343,-3.691801 -2.13037,-3.691811 5.42953,-0.671952 5.42951,-0.668033 z m 18.66129,-10.766803 -5.80087,7.672716 -1.87237,-3.242543 -1.87629,-3.250354 4.77672,-0.593815 z m 18.66131,-10.766791 -5.00345,6.617911 -3.23661,-5.60218 4.12004,-0.507865 4.12002,-0.511776 z m 18.69647,-10.790232 -2.13428,2.820616 -2.13038,2.820617 -2.75971,-4.77396 3.51415,-0.437547 3.51022,-0.437548 z m 18.65739,-10.762892 -1.73559,2.29322 -1.73165,2.293219 -1.12188,-1.937711 -1.12185,-1.941621 2.85353,-0.355509 2.85353,-0.351598 z m 18.66129,-10.7668 -1.33295,1.769732 -1.33686,1.769723 -0.86388,-1.500165 -0.86387,-1.496262 2.19682,-0.27346 z m 18.66128,-10.766789 -0.94206,1.238416 -0.93814,1.242323 -0.60588,-1.050893 -0.6098,-1.050895 1.54403,-0.19143 1.54795,-0.187521 z m 18.69649,-10.790238 -1.1336,1.507978 -0.37135,-0.640695 -0.36744,-0.636789 0.93425,-0.113293 z m 18.69646,-10.78632946 -0.19936,0.26174746 -0.19544,0.265654 -0.1329,-0.2226802 -0.12901,-0.22268134 0.32838,-0.0429751 z M 107.25943,152.60129 l -0.53943,0.71883 -0.54334,0.71491 -0.3479,-0.60553 -0.35181,-0.60163 0.89125,-0.10939 0.89123,-0.1133 z m 24.26671,-13.99762 -4.378,5.7936 -4.37412,5.79359 -5.66794,-9.80575 7.20807,-0.89071 z m 18.9232,-10.91916 -4.17865,5.52795 -4.17867,5.53185 -2.70107,-4.68019 -2.70499,-4.6763 6.88364,-0.85557 z m 18.69647,-10.79024 -3.81121,5.04352 -3.80731,5.03961 -2.46264,-4.26609 -2.46655,-4.26609 6.27386,-0.77352 z m 18.66131,-10.76289 -3.41251,4.51221 -3.40861,4.51613 -2.20856,-3.81682 -2.20855,-3.82464 5.62108,-0.69148 z m 18.65737,-10.766797 -3.00988,3.988725 -3.0138,3.984812 -1.95055,-3.375371 -1.94665,-3.371472 4.96044,-0.617257 4.96044,-0.613347 z m 18.6613,-10.7668 -5.23016,6.922632 -1.69258,-2.930009 -1.69258,-2.926098 4.30766,-0.535217 z m 18.69646,-10.790235 -2.24764,2.972984 -2.24373,2.972974 -1.45413,-2.511994 -1.45412,-2.515893 3.69786,-0.457081 3.69785,-0.46099 z m 18.65739,-10.762889 -1.84502,2.441675 -1.84892,2.445576 -1.19615,-2.070535 -1.19612,-2.066635 3.04114,-0.375041 z m 18.6613,-10.766792 -2.90045,3.836347 -1.87629,-3.250354 2.38446,-0.292991 2.38837,-0.293002 z m 18.6613,-10.766802 -1.05152,1.394683 -1.05151,1.39078 -1.36031,-2.351815 1.73167,-0.214873 1.73556,-0.214864 z m 18.69646,-10.790232 -0.68406,0.902438 -0.68017,0.906348 -0.4417,-0.765703 -0.4417,-0.761804 1.12577,-0.136735 1.12186,-0.140635 z m 18.65737,-10.762888 -0.28143,0.375041 -0.28535,0.37504 -0.17982,-0.31644 -0.18371,-0.320348 0.46907,-0.0547 0.46907,-0.05859 z M 121.95706,169.6969 l -3.27178,4.3286 -3.26789,4.32468 -2.11474,-3.66446 -2.11082,-3.65665 10.76523,-1.33608 z m 21.0653,-12.15368 -4.68682,6.20771 -4.69074,6.2038 -3.03333,-5.25056 -3.03335,-5.25449 7.72408,-0.95713 7.72016,-0.95322 z m 18.66129,-10.76678 -8.58404,11.3606 -2.77925,-4.8052 -2.77536,-4.80522 7.07128,-0.87509 z m 18.69646,-10.78633 -7.84132,10.38394 -2.54082,-4.3911 -2.5369,-4.39111 6.45757,-0.80087 z m 18.6613,-10.7668 -3.52196,4.66457 -3.52977,4.66066 -2.27892,-3.94574 -2.28282,-3.94574 11.60957,-1.43766 z m 18.62221,-10.74336 -3.0998,4.09811 -3.09588,4.102 -4.01057,-6.93825 5.10116,-0.62898 z m 18.69647,-10.79023 -2.72844,3.61368 -2.72845,3.60976 -1.76684,-3.05502 -1.76293,-3.05502 8.98275,-1.1095 z m 18.65738,-10.766812 -2.33364,3.086276 -2.32973,3.082375 -1.50493,-2.609664 -1.50496,-2.613574 3.83859,-0.472701 3.83858,-0.476612 z m 18.70038,-10.786323 -1.96228,2.594032 -1.9623,2.597933 -1.26649,-2.199459 -1.2665,-2.191639 3.22879,-0.398483 3.23269,-0.402384 z m 18.65738,-10.766802 -1.56356,2.070536 -1.56359,2.066634 -1.00851,-1.75019 -1.01242,-1.75019 2.57601,-0.316445 2.57598,-0.320345 z m 18.66131,-10.76679 -2.32974,3.086266 -0.75442,-1.304823 -0.75053,-1.304831 3.83859,-0.476612 z m 18.65737,-10.766801 -0.76614,1.01574 -0.77008,1.01573 -0.49251,-0.859463 -0.49645,-0.863383 2.52518,-0.312525 z m 18.69647,-10.786324 -0.39871,0.527397 -0.39871,0.523497 -0.25408,-0.445369 -0.258,-0.445357 0.65671,-0.08201 0.65279,-0.08201 z m -237.20637,162.439542 -1.25477,1.65644 -1.25085,1.65642 -0.80916,-1.40249 -0.80916,-1.39858 2.06393,-0.25395 2.0561,-0.25392 z m 24.341,-14.04449 -5.14417,6.80934 -5.14417,6.81323 -3.33042,-5.76234 -3.32652,-5.75844 8.47069,-1.04699 8.47459,-1.047 z m 18.69646,-10.78633 -4.77673,6.32101 -4.77282,6.32099 -3.09196,-5.34823 -3.08808,-5.34825 z m 18.69647,-10.79024 -4.40538,5.82876 -4.40537,5.83267 -2.85353,-4.93413 -2.84961,-4.93022 14.50999,-1.79708 z m 18.6613,-10.76679 -4.01058,5.30526 -4.00667,5.30527 -2.58772,-4.48878 -2.59553,-4.48876 13.20441,-1.63299 z m 18.69647,-10.78633 -7.27844,9.63386 -2.34929,-4.07857 -2.35317,-4.07075 5.98849,-0.74227 5.99241,-0.73837 z m 18.62221,-10.74337 -6.42631,8.50093 -2.07565,-3.59803 -2.07563,-3.59415 5.28879,-0.65632 z m 18.65738,-10.76678 -2.81444,3.72305 -2.81445,3.72697 -1.81765,-3.15269 -1.81764,-3.14876 z m 18.69646,-10.79023 -2.44308,3.23863 -2.44699,3.23472 -3.15844,-5.47716 4.02621,-0.49614 z m 18.66131,-10.76681 -2.04438,2.71124 -2.04829,2.70732 -1.32123,-2.29321 -1.32512,-2.28932 z m 18.69646,-10.786339 -1.67694,2.218991 -1.67692,2.222901 -1.08278,-1.879114 -1.0867,-1.879105 2.76363,-0.339885 z m 18.62221,-10.743349 -1.25086,1.65252 -1.25477,1.66034 -0.80524,-1.402502 -0.80916,-1.402493 2.05611,-0.250026 2.06001,-0.253939 z m 18.69647,-10.790244 -0.8795,1.168097 -0.88343,1.164196 -0.57071,-0.988397 -0.56678,-0.984476 1.4502,-0.17971 1.44631,-0.17971 z m 18.66129,-10.766791 -0.96941,1.281389 -0.62543,-1.078247 0.79352,-0.101572 0.79741,-0.09771 z m 18.69649,-10.786334 -0.10946,0.148457 -0.11727,0.148455 -0.0742,-0.125012 -0.0742,-0.128925 0.18374,-0.0195 0.18761,-0.02341 z m -251.69293,170.795937 -4.52264,5.98502 -4.51483,5.98113 -2.9278,-5.05914 -2.92389,-5.05916 7.44653,-0.91807 7.44263,-0.92197 z m 20.16624,-11.63409 -5.26143,6.9617 -5.25752,6.9578 -3.40469,-5.89126 -3.4008,-5.88346 17.31663,-2.14867 z m 18.69648,-10.78632 -4.88618,6.46945 -4.8901,6.46946 -3.16233,-5.46934 -3.16625,-5.47326 8.05243,-1.00011 z m 18.66129,-10.7668 -4.49529,5.94597 -4.49137,5.94595 -2.90044,-5.0318 -2.90434,-5.02789 7.39962,-0.91417 z m 18.69646,-10.79024 -8.24785,10.90744 -2.662,-4.61379 -2.6659,-4.61768 6.78593,-0.83603 z m 18.65739,-10.76288 -3.72131,4.92632 -3.72522,4.93022 -4.81582,-8.33684 6.13312,-0.76181 z m 18.66131,-10.7668 -3.32653,4.39892 -3.32259,4.40282 -2.15383,-3.72696 -2.14991,-3.72306 5.47641,-0.67977 5.47645,-0.67585 z m 18.65737,-10.7668 -2.92389,3.87543 -2.92779,3.87151 -1.89193,-3.2777 -1.89584,-3.27769 4.82363,-0.59773 4.82364,-0.59382 z m 18.70038,-10.79023 -2.56036,3.38709 -2.55645,3.38708 -1.65346,-2.86358 -1.65741,-2.8675 4.21383,-0.51959 z m 18.65738,-10.7668 -2.15772,2.85969 -2.16165,2.85579 -1.3994,-2.41824 -1.3955,-2.41432 3.55323,-0.44146 3.55714,-0.44146 z m 18.69647,-10.78633 -1.78638,2.36746 -1.79421,2.37134 -1.16094,-2.00413 -1.15706,-2.00411 2.94735,-0.36723 2.94733,-0.36333 z m 18.6613,-10.766794 -1.39549,1.843954 -1.39158,1.84395 -0.90298,-1.55876 -0.90296,-1.562672 2.29456,-0.281281 2.29454,-0.285191 z m 18.65739,-10.766801 -0.99286,1.320453 -0.9968,1.316553 -1.28995,-2.226812 1.64176,-0.199231 1.63785,-0.207063 z m 18.66129,-10.766801 -0.59807,0.793056 -0.59416,0.789147 -0.38308,-0.668034 -0.38697,-0.668043 0.98505,-0.121113 0.98504,-0.125013 z m 18.66128,-10.762891 -0.19935,0.261748 -0.19936,0.265659 -0.25798,-0.445358 0.32836,-0.04301 z M 115.6324,250.07283 l -2.3571,3.12143 -2.36101,3.12143 -1.5284,-2.64091 -1.52449,-2.64092 3.8855,-0.48052 3.88158,-0.48051 z m 23.6999,-13.67728 -11.53919,15.27511 -3.73304,-6.46164 -3.72913,-6.45775 9.50654,-1.1759 9.50265,-1.17982 z m 18.66129,-10.76678 -5.37088,7.11405 -5.37088,7.11014 -6.9501,-12.03257 8.84984,-1.09386 8.84984,-1.09776 z m 18.69648,-10.78634 -5.00345,6.61792 -4.99953,6.62181 -3.23659,-5.60218 -3.23662,-5.60608 16.48011,-2.03929 z m 18.6613,-10.7668 -9.20946,12.18883 -2.97864,-5.1568 -2.9786,-5.15292 7.58725,-0.94149 7.58336,-0.93762 z m 18.69647,-10.79024 -4.23729,5.60609 -4.23339,5.60608 -5.48034,-9.48541 6.97747,-0.85946 z m 18.65739,-10.76287 -3.83467,5.07475 -3.83468,5.07869 -2.48217,-4.29344 -2.48218,-4.29733 z m 18.66129,-10.76681 -6.87975,9.10255 -2.22808,-3.85197 -2.22419,-3.85198 5.66405,-0.6993 z m 18.66129,-10.76679 -3.04506,4.02777 -3.04116,4.02388 -1.9662,-3.40662 -1.9701,-3.40662 10.02252,-1.23451 z m 18.65739,-10.76681 -2.64244,3.50039 -2.64245,3.49647 -1.71213,-2.95734 -1.7082,-2.96127 4.35065,-0.53912 4.35457,-0.5352 z m 18.69647,-10.78632 -2.2711,3.00814 -2.275,3.01205 -1.47368,-2.54716 -1.46976,-2.54714 3.74477,-0.46099 z m 18.66128,-10.76679 -3.75258,4.96148 -2.43135,-4.20359 3.08805,-0.38285 3.09198,-0.38286 z m 18.65739,-10.76681 -1.47367,1.95726 -1.48148,1.95333 -0.95379,-1.65252 -0.95379,-1.65644 2.43527,-0.30081 2.43137,-0.30082 z m 18.66129,-10.76679 -1.08277,1.42984 -1.07885,1.42984 -0.69581,-1.21105 -0.69971,-1.20716 1.77858,-0.22269 z m 18.6613,-10.766808 -0.68405,0.906349 -0.68018,0.902448 -0.4417,-0.765714 -0.44171,-0.761801 1.12187,-0.140637 1.12577,-0.136734 z m 18.69648,-10.786323 -0.31272,0.414106 -0.31272,0.410204 -0.20326,-0.347697 -0.19936,-0.3516 0.51208,-0.06251 z m -295.89525,196.298701 -0.62542,0.82822 -0.20328,-0.35161 -0.19935,-0.34768 0.51206,-0.0625 z m 26.29546,-15.17352 -5.68751,7.52817 -5.68361,7.52425 -3.67831,-6.36788 -3.6744,-6.36398 9.35801,-1.16028 z m 19.447,-11.21997 -5.88296,7.78599 -5.88686,7.78993 -3.80733,-6.59057 -3.80338,-6.59056 19.38053,-2.3987 z m 18.66128,-10.7668 -5.48816,7.26251 -5.48424,7.2586 -7.09865,-12.28258 9.03357,-1.12122 z m 18.6613,-10.76289 -10.17888,13.47021 -6.58268,-11.39186 8.38079,-1.03916 8.38077,-1.03528 z m 18.69646,-10.79023 -4.72198,6.24287 -4.71811,6.24287 -6.10576,-10.56366 7.77097,-0.96105 z m 18.6574,-10.7668 -8.63878,11.43875 -5.58978,-9.68075 z m 18.66129,-10.7668 -3.92067,5.19198 -3.92068,5.18806 -2.5408,-4.39111 -2.53691,-4.39501 6.45757,-0.80085 6.46149,-0.80087 z m 18.69647,-10.78632 -3.55323,4.69972 -3.55323,4.70364 -2.29845,-3.9809 -2.29846,-3.977 5.85168,-0.72664 5.85169,-0.72273 z m 18.6222,-10.74336 -3.12715,4.13717 -3.12716,4.14107 -2.02092,-3.50429 -2.02483,-3.50038 10.30397,-1.27357 z m 18.69647,-10.79024 -2.75581,3.65275 -2.7597,3.64883 -1.78247,-3.08627 -1.78248,-3.09019 4.54219,-0.56256 z m 18.66129,-10.7668 -2.361,3.12143 -2.35708,3.12535 -1.52842,-2.64482 -1.52446,-2.64091 3.88156,-0.48052 3.8855,-0.48053 z m 18.69648,-10.78633 -1.98964,2.6331 -1.99356,2.63311 -2.57211,-4.45361 6.55139,-0.8126 z m 18.65739,-10.76678 -3.18187,4.21139 -1.02806,-1.77754 -1.02807,-1.78534 z m 18.66128,-10.76681 -1.19222,1.5783 -1.19224,1.5822 -0.77396,-1.33998 -0.77006,-1.33608 3.93239,-0.48444 z m 18.6613,-10.76679 -0.79741,1.0548 -0.79744,1.0509 -1.03196,-1.78145 2.62681,-0.32816 z m 18.65737,-10.7668 -0.39869,0.52741 -0.39871,0.52348 -0.258,-0.44535 -0.25408,-0.44927 0.65279,-0.0781 0.65669,-0.0819 z m -291.68137,193.87265 -3.58061,4.7388 -3.58449,4.7388 -2.318,-4.01216 -2.31411,-4.00824 5.8986,-0.73055 5.8947,-0.73055 z m 22.87512,-13.19674 -12.73533,16.8534 -8.24006,-14.25938 10.4877,-1.29701 10.48378,-1.29701 z m 18.69647,-10.79024 -11.99264,15.87672 -7.76315,-13.43114 z m 18.6222,-10.74336 -5.57023,7.3719 -5.57415,7.37189 -3.60406,-6.23505 -3.60404,-6.23896 9.1782,-1.13683 9.17428,-1.13685 z m 18.70039,-10.78632 -10.4056,13.76712 -6.73121,-11.64972 8.56449,-1.06261 8.56841,-1.05871 z m 18.65738,-10.76681 -4.80409,6.36008 -4.80409,6.35615 -3.10761,-5.37948 -3.11152,-5.37951 7.91562,-0.97667 7.90778,-0.98057 z m 18.69647,-10.79023 -4.43273,5.87173 -4.43275,5.86782 -5.73833,-9.93076 14.60381,-1.81269 z m 18.66129,-10.7668 -4.03793,5.34433 -4.03794,5.34042 -2.61118,-4.51611 -2.61117,-4.52003 z m 18.65739,-10.76288 -3.63532,4.81692 -3.63922,4.81303 -2.35318,-4.07466 -2.34928,-4.07076 5.98851,-0.74227 5.98849,-0.73836 z m 18.6613,-10.7668 -3.24051,4.28563 -3.23661,4.28953 -4.1904,-7.25861 5.33571,-0.65632 5.33962,-0.66023 z m 18.66129,-10.7668 -5.69142,7.52425 -3.67441,-6.36787 4.68292,-0.57428 z m 18.69647,-10.79024 -2.47046,3.27379 -2.47435,3.2699 -1.59875,-2.76984 -1.59877,-2.76592 4.07311,-0.50396 4.07704,-0.50397 z m 18.65737,-10.76288 -2.07563,2.74248 -2.07565,2.7464 -2.68153,-4.64895 3.4164,-0.42582 3.41641,-0.41802 z m 18.69649,-10.79024 -1.70431,2.25805 -1.7082,2.25807 -1.10231,-1.91037 -1.10625,-1.91426 2.81054,-0.34379 z m 18.66129,-10.76679 -1.3095,1.73456 -1.30559,1.73065 -0.84822,-1.465 -0.84434,-1.46501 2.15382,-0.26564 z m 18.6613,-10.7668 -1.82157,2.4065 -0.58636,-1.01573 -0.59024,-1.01573 1.49713,-0.18752 z m 18.65738,-10.7668 -0.50816,0.67975 -0.51208,0.67977 -0.66452,-1.14856 0.84432,-0.10548 z m 18.69647,-10.78633 -0.14073,0.19142 -0.14071,0.18362 -0.18762,-0.32034 0.23452,-0.0273 0.23454,-0.0312 z m -333.17484,217.81275 -0.9655,1.28139 -0.96551,1.27749 -0.62542,-1.08214 -0.62544,-1.07825 z m 26.74891,-15.43135 -6.68039,8.84079 -6.68038,8.83692 -4.31938,-7.4774 -4.31938,-7.48127 11.00367,-1.35952 10.99977,-1.35952 z m 18.91929,-10.91916 -12.96205,17.15811 -4.19431,-7.2586 -4.19429,-7.25469 10.67141,-1.32436 10.67533,-1.32046 z m 18.66129,-10.7668 -6.08232,8.05166 -6.08622,8.04775 -7.8726,-13.61867 10.02252,-1.23842 z m 18.65738,-10.76679 -5.68362,7.52425 -5.68358,7.52817 -7.35665,-12.73577 9.36192,-1.15638 z m 18.66129,-10.76681 -10.57759,13.99371 -6.84066,-11.83722 8.70912,-1.07824 8.70522,-1.07825 z m 18.69646,-10.78632 -4.91744,6.50851 -4.91354,6.50852 -3.18188,-5.5084 -3.17796,-5.5045 8.09933,-1.00402 8.09541,-1.00011 z m 18.66131,-10.7668 -4.52265,5.98112 -4.52264,5.98502 -2.91999,-5.06306 -2.9239,-5.05913 7.44655,-0.92197 7.44263,-0.91807 z m 18.69646,-10.79023 -4.14739,5.49668 -4.1552,5.49279 -2.68154,-4.64894 -2.68543,-4.64504 6.83283,-0.84384 6.83673,-0.84775 z m 18.6613,-10.76289 -3.7565,4.96538 -3.75258,4.96539 -2.42746,-4.20359 -2.42744,-4.19968 6.18003,-0.7657 z m 18.65738,-10.76681 -3.35386,4.43799 -3.35388,4.44189 -4.33892,-7.50863 11.04666,-1.36734 z m 18.6613,-10.76679 -2.95518,3.9106 -2.95906,3.91057 -3.82294,-6.61791 4.86663,-0.60553 4.87055,-0.60163 z m 18.69648,-10.79024 -2.58772,3.42617 -2.58773,3.42223 -3.34605,-5.78968 4.26074,-0.5235 4.26076,-0.53131 z m 18.65736,-10.76288 -2.18508,2.89093 -2.18901,2.89876 -1.41504,-2.4495 -1.41895,-2.45338 7.20808,-0.89072 z m 18.7004,-10.79023 -1.82157,2.40651 -1.81766,2.40651 -1.1766,-2.0393 -1.18049,-2.03537 5.99632,-0.74227 z m 18.62219,-10.74336 -2.79096,3.6879 -0.89907,-1.56267 -0.90297,-1.55877 2.29454,-0.28519 2.29456,-0.28127 z m 18.65739,-10.76681 -0.99286,1.32046 -0.99678,1.31655 -1.28996,-2.2268 3.27568,-0.40629 z m 18.69648,-10.79023 -1.25087,1.65643 -0.40261,-0.69929 -0.40654,-0.70319 1.02805,-0.12502 1.02806,-0.12893 z m 18.6613,-10.76289 -0.45345,0.60163 -0.15245,-0.25393 -0.14462,-0.25394 0.37917,-0.043 0.37135,-0.043 z m -328.05804,214.85931 -9.83488,13.01704 -3.17797,-5.50841 -3.17799,-5.5045 8.09933,-1.00011 8.09933,-1.00402 z m 21.894,-12.63418 -6.96183,9.21975 -6.96574,9.21584 -4.50701,-7.79772 -4.50309,-7.79773 11.46882,-1.41812 z m 18.69646,-10.78634 -6.59438,8.72751 -6.59048,8.72753 -8.52931,-14.76724 10.86296,-1.3439 10.85904,-1.3439 z m 18.66131,-10.76679 -12.39918,16.40804 -4.00666,-6.94217 -4.00667,-6.93434 10.20626,-1.26577 10.20625,-1.26185 z m 18.66129,-10.76679 -5.80088,7.67661 -5.80086,7.67271 -3.74868,-6.4929 -3.75259,-6.49289 9.54955,-1.17982 z m 18.65738,-10.7668 -5.40216,7.14921 -5.39825,7.14921 -3.4946,-6.04752 -3.49069,-6.04754 8.89285,-1.09778 z m 18.69647,-10.78634 -5.03081,6.65699 -5.03081,6.66088 -3.25614,-5.63343 -3.25224,-5.63343 8.28305,-1.02355 8.28695,-1.02354 z m 18.66129,-10.76679 -4.63209,6.13348 -4.63601,6.12958 -2.99426,-5.18808 -2.99814,-5.18806 7.63025,-0.9415 z m 18.65739,-10.7668 -8.46677,11.21216 -2.74018,-4.73879 -2.74016,-4.74271 6.97355,-0.86728 z m 18.70037,-10.78633 -7.73189,10.23549 -5.00343,-8.65719 z m 18.65739,-10.76678 -3.46722,4.59033 -3.46725,4.58645 -2.24762,-3.87934 -2.24375,-3.88324 11.42193,-1.4142 z m 18.66129,-10.76682 -6.14486,8.12589 -1.98573,-3.43787 -1.98575,-3.44177 5.05426,-0.62507 5.05818,-0.62507 z m 18.65738,-10.76678 -2.6698,3.53554 -2.67372,3.53554 -1.73166,-2.99252 -1.72775,-2.9886 4.39756,-0.54693 4.39756,-0.54303 z m 18.69649,-10.78633 -4.60473,6.09441 -1.49323,-2.5784 -1.48931,-2.57841 7.58336,-0.9376 z m 18.66129,-10.7668 -1.90366,2.5159 -1.90756,2.52371 -1.22741,-2.13304 -1.23132,-2.12914 6.26995,-0.77353 z m 18.66129,-10.76679 -1.50885,1.9924 -1.50494,1.99241 -1.95447,-3.37537 2.48609,-0.30863 2.47826,-0.30471 z m 18.65739,-10.7668 -1.10624,1.46892 -1.10622,1.46499 -0.71925,-1.23842 -0.71533,-1.24232 3.65095,-0.45317 z m 18.6613,-10.7668 -0.71144,0.94151 -0.71143,0.93761 -0.46126,-0.79307 -0.45734,-0.79696 1.16877,-0.14845 1.1727,-0.14453 z m 18.69647,-10.78632 -0.68799,0.89854 -0.43779,-0.76572 1.12578,-0.14065 z m -351.3866,228.31779 -1.90365,2.52371 -1.90367,2.51981 -2.46262,-4.26608 3.13497,-0.39068 3.13106,-0.38676 z m 26.26028,-15.15007 -7.24718,9.59479 -7.25108,9.59088 -4.69074,-8.11417 -4.68683,-8.11807 z m 18.96228,-10.94261 -7.0791,9.36822 -7.07517,9.3682 -4.57738,-7.92666 -4.57738,-7.92272 11.65256,-1.44157 z m 18.66128,-10.76288 -6.68038,8.83689 -6.68038,8.84081 -4.31938,-7.47737 -4.31938,-7.48129 10.99976,-1.35952 11.00367,-1.35952 z m 18.69648,-10.79024 -6.30903,8.35247 -6.31294,8.35247 -8.16188,-14.13435 10.38997,-1.28529 z m 18.6613,-10.7668 -5.91423,7.82898 -5.91033,7.82507 -3.82684,-6.61791 -3.82296,-6.62181 9.73718,-1.20716 9.73718,-1.20326 z m 18.65739,-10.76679 -5.51162,7.29766 -5.51942,7.30159 -3.56496,-6.17646 -3.56888,-6.17646 9.08049,-1.12513 9.08439,-1.12511 z m 18.66128,-10.7629 -5.12071,6.77026 -5.1168,6.77419 -3.31088,-5.73109 -3.30697,-5.72719 8.42768,-1.04308 8.42377,-1.04309 z m 18.65738,-10.76678 -9.43618,12.48573 -6.10577,-10.56366 7.76705,-0.96105 7.771,-0.96102 z m 18.69647,-10.79025 -4.34674,5.75454 -4.35065,5.75844 -2.81444,-4.87162 -2.81444,-4.86773 14.32236,-1.77363 z m 18.66131,-10.76679 -7.90389,10.46207 -2.55645,-4.42626 -2.55644,-4.42235 13.01678,-1.60956 z m 18.69647,-10.78633 -3.5806,4.73879 -3.5845,4.7388 -2.31409,-4.00825 -2.31801,-4.00824 5.8986,-0.73055 5.89469,-0.73055 z m 18.6222,-10.74336 -3.15452,4.17624 -3.15843,4.17625 -2.04047,-3.53164 -2.04046,-3.53554 5.19499,-0.64461 5.19498,-0.6407 z m 18.69648,-10.79024 -5.56633,7.3758 -1.80204,-3.11753 -1.7981,-3.11751 4.58518,-0.56647 4.58911,-0.56647 z m 18.66129,-10.76679 -2.38836,3.1605 -2.39228,3.1605 -1.54013,-2.67218 -1.54403,-2.67606 7.8648,-0.97666 z m 18.69648,-10.78632 -2.02093,2.66825 -2.01702,2.67216 -1.30168,-2.26196 -1.30558,-2.25806 3.3226,-0.4141 3.32651,-0.41022 z m 18.66129,-10.7668 -3.24443,4.28953 -2.09519,-3.6254 z m 18.65738,-10.7668 -1.2235,1.61736 -1.2196,1.61738 -0.7896,-1.36735 -0.79351,-1.37124 4.02621,-0.50006 z m 18.66129,-10.76679 -0.82478,1.09387 -0.82479,1.08995 -0.53163,-0.92197 -0.5316,-0.92589 z m 18.69646,-10.78634 -0.45343,0.60163 -0.45735,0.60163 -0.58634,-1.02354 0.74661,-0.0898 0.75051,-0.0937 z m 18.66131,-10.76679 -0.0586,0.0742 -0.0547,0.0742 -0.0391,-0.0624 -0.0351,-0.0624 z m -391.75034,251.6094 -0.22671,0.30471 -0.0742,-0.1289 -0.0742,-0.12502 0.37526,-0.0469 z m 26.93262,-15.54076 -5.96507,7.8993 -5.96894,7.9032 -3.86203,-6.68431 -3.86205,-6.68043 9.83101,-1.21887 z m 20.87766,-12.04818 -7.24328,9.5948 -7.25108,9.59088 -4.69074,-8.11808 -4.68683,-8.11806 11.93793,-1.47673 11.934,-1.47673 z m 19.07564,-11.0051 -14.33018,18.963 -9.2642,-16.04081 z m 18.69647,-10.78633 -13.58749,17.98633 -4.39365,-7.6102 -4.39364,-7.6063 11.18348,-1.38687 z m 18.65739,-10.7668 -6.39504,8.46185 -6.39502,8.46577 -4.13958,-7.16484 -4.13565,-7.16094 10.53459,-1.30091 10.5307,-1.30484 z m 18.70037,-10.79023 -12.05517,15.95486 -3.90112,-6.74683 -3.89723,-6.74683 9.92481,-1.23059 z m 18.62221,-10.74336 -5.60151,7.41486 -5.5976,7.41096 -3.62359,-6.26631 -3.62361,-6.27021 9.22512,-1.14074 9.22119,-1.14466 z m 18.69648,-10.78634 -5.23018,6.91873 -5.23016,6.92653 -3.38513,-5.8561 -3.38125,-5.8561 8.61532,-1.06654 8.6153,-1.06261 z m 18.65738,-10.76679 -4.82754,6.39523 -4.83537,6.39523 -3.12715,-5.40684 -3.12715,-5.41074 7.9586,-0.98449 7.9547,-0.98058 z m 18.66128,-10.7668 -4.43664,5.87174 -4.43664,5.86782 -2.86526,-4.96538 -2.86917,-4.96929 7.30192,-0.90244 7.30189,-0.90635 z m 18.69648,-10.79023 -4.0653,5.37949 -4.06921,5.37949 -5.25361,-9.10255 6.69211,-0.82821 6.69601,-0.83211 z m 18.69648,-10.78633 -7.3879,9.78232 -2.38836,-4.13717 -2.38837,-4.14108 6.08622,-0.75007 6.08622,-0.754 z m 18.62221,-10.74336 -6.53577,8.64938 -4.22947,-7.32111 5.38262,-0.66805 5.38262,-0.66412 z m 18.69647,-10.79022 -2.89654,3.83634 -2.90042,3.84026 -3.7526,-6.49289 4.77673,-0.58991 z m 18.66129,-10.76682 -2.50173,3.31287 -2.50172,3.30894 -1.6183,-2.80107 -1.6144,-2.80109 4.11613,-0.51178 4.12002,-0.51177 z m 18.6613,-10.76288 -4.20603,5.56311 -1.3603,-2.35182 -1.36033,-2.35573 3.46332,-0.42973 z m 18.69646,-10.79023 -1.73558,2.29322 -1.73165,2.29712 -2.24373,-3.88324 2.85352,-0.35159 z m 18.65739,-10.7668 -2.66591,3.53945 -0.86777,-1.49626 -0.86388,-1.50017 2.20073,-0.26955 z m 18.66129,-10.76679 -0.93814,1.24232 -0.94205,1.23842 -0.6059,-1.047 -0.60979,-1.05089 3.08806,-0.38285 z m 18.6613,-10.76682 -0.54335,0.71885 -0.53944,0.71492 -0.35181,-0.60554 -0.34398,-0.60163 0.89124,-0.11329 z m 18.69646,-10.78631 -0.34398,0.45317 -0.11336,-0.18752 -0.10945,-0.19142 0.27753,-0.0352 0.28145,-0.0312 z m -388.06419,249.48416 -3.01379,3.98481 -3.0099,3.98481 -1.95056,-3.37145 -1.94666,-3.37537 4.96046,-0.61725 4.96045,-0.61335 z m 24.79051,-14.30624 -7.2511,9.59479 -7.24326,9.5909 -4.69073,-8.11808 -4.68683,-8.11806 11.93402,-1.47283 11.9379,-1.48062 z m 19.1851,-11.07151 -14.49437,19.18959 -4.69073,-8.11808 -4.68683,-8.11416 11.93792,-1.47672 z m 19.18508,-11.07152 -14.49436,19.18959 -4.69072,-8.11807 -4.68684,-8.11416 11.93792,-1.47673 z m 18.69648,-10.78633 -6.87974,9.10256 -6.87584,9.10645 -4.45227,-7.70396 -4.4484,-7.70397 11.32813,-1.4025 11.32421,-1.40249 z m 18.70038,-10.79024 -6.5084,8.61813 -6.50838,8.61422 -4.21383,-7.28986 -4.20994,-7.28595 10.71832,-1.32828 10.72223,-1.32436 z m 18.69647,-10.79022 -6.14095,8.12978 -6.13704,8.12587 -3.97148,-6.87183 -3.97149,-6.87575 10.11634,-1.25014 10.11244,-1.25404 z m 18.6222,-10.74337 -11.42974,15.12665 -7.3879,-12.79828 9.40882,-1.16418 9.40882,-1.1681 z m 18.65739,-10.7668 -5.31226,7.03593 -5.31617,7.03592 -3.43986,-5.95377 -3.43987,-5.94988 8.75213,-1.08605 z m 18.69647,-10.78632 -4.94481,6.54368 -4.94481,6.54759 -3.19753,-5.53967 -3.20141,-5.53966 8.14623,-1.01183 8.14233,-1.00794 z m 18.66129,-10.76681 -4.5461,6.02019 -4.55001,6.02019 -2.93953,-5.09039 -2.93953,-5.09432 7.48564,-0.92587 z m 18.69649,-10.78632 -4.17867,5.53186 -4.17867,5.52794 -5.40216,-9.3604 13.7595,-1.7033 z m 18.66128,-10.76679 -3.77994,5.00054 -3.77997,5.00445 -2.44698,-4.23093 -2.4431,-4.23484 6.22305,-0.76962 z m 18.65739,-10.7668 -6.76248,8.95409 -2.189,-3.78946 -2.18902,-3.78558 5.57415,-0.69147 5.57025,-0.68758 z m 18.66129,-10.7668 -5.97286,7.8993 -1.93102,-3.3441 -1.93103,-3.34023 4.91745,-0.60943 z m 18.69647,-10.79023 -2.61509,3.46132 -2.619,3.4613 -1.69255,-2.92609 -1.69258,-2.93001 4.30765,-0.53131 4.30765,-0.53521 z m 18.6613,-10.7629 -2.22028,2.93391 -2.21638,2.93393 -2.86917,-4.96149 7.30192,-0.89852 z m 18.65737,-10.76679 -3.63531,4.81303 -1.18051,-2.03929 -1.17658,-2.03538 2.99816,-0.37504 2.99424,-0.37113 z m 18.6613,-10.7668 -1.41895,1.88302 -1.42675,1.87911 -1.83721,-3.18002 2.34144,-0.29301 z m 18.65738,-10.7668 -1.02414,1.35562 -1.02022,1.35561 -0.66453,-1.14465 -0.66453,-1.14855 1.68475,-0.20707 z m 18.70039,-10.78631 -0.6528,0.86336 -0.65671,0.86338 -0.84432,-1.46111 2.15772,-0.26563 z m 18.65738,-10.76682 -0.25409,0.3399 -0.25407,0.33596 -0.16809,-0.28518 -0.16417,-0.2891 0.41826,-0.0508 z m -410.66962,262.52857 -0.51207,0.67976 -0.50816,0.67585 -0.66452,-1.14857 0.84432,-0.10157 z m 27.38606,-15.8025 -6.70777,8.87597 -6.70773,8.87987 -4.33892,-7.51645 -4.33893,-7.50862 11.05057,-1.36734 11.04669,-1.36733 z m 19.90043,-11.48172 -7.2511,9.59478 -7.24327,9.5909 -4.69073,-8.11807 -4.69074,-8.11416 z m 19.18507,-11.07152 -7.24716,9.5948 -7.24718,9.59087 -4.69073,-8.11415 -4.68684,-8.11807 11.93791,-1.47672 z m 19.18511,-11.07151 -7.24718,9.59479 -7.2511,9.59089 -4.69072,-8.11417 -4.68684,-8.11807 11.93792,-1.47671 11.93401,-1.47673 z m 18.84501,-10.87229 -6.9892,9.25101 -6.9931,9.25883 -4.52653,-7.83289 -4.52657,-7.82897 11.51967,-1.42203 z m 18.70038,-10.79022 -6.62567,8.76657 -6.62173,8.76658 -8.56841,-14.83755 10.90596,-1.3478 z m 18.65737,-10.7668 -6.22303,8.23918 -6.22694,8.24309 -4.02621,-6.96951 -4.0223,-6.9695 20.49848,-2.53936 z m 18.66131,-10.7668 -11.65647,15.42356 -3.76823,-6.52806 -3.76821,-6.52415 9.59645,-1.18763 9.60036,-1.19153 z m 18.65739,-10.76288 -10.85905,14.36875 -3.51414,-6.07879 -3.51024,-6.07878 8.94367,-1.10559 z m 18.66128,-10.76681 -5.03082,6.65699 -5.03471,6.65696 -3.25223,-5.63342 -3.25615,-5.63342 z m 18.69648,-10.79022 -9.32674,12.33727 -3.0138,-5.21931 -3.01771,-5.21933 7.68107,-0.94932 7.67325,-0.94931 z m 18.66128,-10.76681 -8.5293,11.29029 -2.75971,-4.77786 -2.75581,-4.77004 7.02046,-0.8712 7.02436,-0.86727 z m 18.69649,-10.78633 -3.89723,5.15291 -3.89331,5.1529 -2.52126,-4.35984 -2.51736,-4.35986 6.41066,-0.79305 6.41457,-0.79306 z m 18.65738,-10.76679 -3.49461,4.6255 -3.49458,4.62941 -2.26328,-3.91838 -2.26328,-3.91451 5.75787,-0.71492 5.75788,-0.71101 z m 18.66129,-10.7668 -3.09589,4.10201 -3.0998,4.10202 -4.01056,-6.93826 5.10508,-0.62898 5.10117,-0.62897 z m 18.66129,-10.76679 -2.70499,3.5746 -2.69717,3.5707 -3.4946,-6.04753 4.44837,-0.55474 4.44839,-0.55085 z m 18.65738,-10.76681 -4.60473,6.09443 -1.49322,-2.5745 -1.48931,-2.57841 3.79167,-0.46881 3.78778,-0.47271 z m 18.69647,-10.78632 -1.93101,2.55887 -1.93492,2.55888 -1.24696,-2.16431 -1.25086,-2.16429 z m 18.6613,-10.7668 -1.53622,2.03538 -1.5362,2.02756 -0.98897,-1.71501 -0.99678,-1.71895 2.52518,-0.31253 2.52908,-0.31254 z m 18.66129,-10.76679 -1.13749,1.50406 -1.13752,1.50799 -0.73488,-1.27357 -0.73487,-1.27748 z m 18.65739,-10.7668 -0.73878,0.98057 -0.7349,0.97667 -0.4808,-0.82821 -0.4769,-0.82431 1.21961,-0.15235 1.21959,-0.14847 z m 18.69646,-10.78632 -0.36744,0.48832 -0.37134,0.48834 -0.47689,-0.82822 0.60979,-0.0742 z m -406.04142,259.85638 -8.24787,10.90744 -2.6659,-4.61378 -2.662,-4.61378 6.78594,-0.83995 z m 23.32075,-13.45849 -7.25108,9.59479 -7.24718,9.59088 -4.69073,-8.11415 -4.69074,-8.11807 11.94182,-1.47282 z m 19.18509,-11.07153 -7.25109,9.5948 -7.24328,9.59089 -4.69072,-8.11416 -4.69073,-8.11808 11.93791,-1.47281 z m 19.1851,-11.0676 -7.24718,9.5948 -7.24719,9.59088 -4.69073,-8.11808 -4.68682,-8.11806 11.93791,-1.47282 z m 19.18509,-11.07151 -7.2511,9.59479 -7.24716,9.59089 -4.69073,-8.11417 -4.68684,-8.11807 11.93791,-1.47281 11.93792,-1.47673 z m 19.00137,-10.96214 -7.10645,9.40338 -7.10255,9.40335 -4.59692,-7.95789 -4.59692,-7.95399 11.69947,-1.44938 11.70727,-1.44937 z m 18.65738,-10.76679 -6.70775,8.87596 -6.71166,8.87988 -8.67784,-15.02507 11.05059,-1.36735 11.04666,-1.36733 z m 18.69646,-10.79024 -6.3403,8.39153 -6.34029,8.38764 -4.10048,-7.09451 -4.1005,-7.09844 z m 18.6613,-10.76679 -11.88317,15.72827 -7.68499,-13.30614 z m 18.6222,-10.74336 -5.51551,7.29768 -5.51943,7.29766 -3.56496,-6.17254 -3.56886,-6.17646 18.16876,-2.25024 z m 18.69649,-10.78633 -10.28835,13.61867 -3.3265,-5.75844 -3.33043,-5.76235 8.47459,-1.04699 z m 18.66128,-10.7668 -4.74936,6.28194 -4.74546,6.28193 -3.07242,-5.31308 -3.07244,-5.31699 15.63578,-1.93771 z m 18.69649,-10.79023 -4.37803,5.79361 -4.37411,5.79359 -5.66796,-9.80576 7.212,-0.89462 7.2081,-0.89073 z m 18.65737,-10.7629 -7.9586,10.5324 -2.576,-4.45361 -2.57598,-4.45751 6.55138,-0.81259 6.5514,-0.80869 z m 18.70038,-10.79022 -3.61576,4.77786 -3.61188,4.77785 -2.32973,-4.04339 -2.33754,-4.03952 11.891,-1.46891 z m 18.62222,-10.74336 -3.18581,4.2114 -3.18188,4.2153 -2.05999,-3.56681 -2.05612,-3.56289 5.24581,-0.6485 5.24189,-0.6485 z m 18.69646,-10.79024 -5.62888,7.45393 -1.82156,-3.15268 -1.81766,-3.15269 4.63211,-0.57427 z m 18.65739,-10.76288 -2.41573,3.19565 -2.41573,3.19957 -1.55967,-2.70342 -1.56749,-2.70733 3.98321,-0.49223 3.97541,-0.48835 z m 18.69646,-10.79024 -2.04437,2.70733 -2.04828,2.71122 -1.32123,-2.29321 -1.32513,-2.28932 z m 18.6613,-10.7668 -1.64567,2.18382 -1.64958,2.18384 -1.06712,-1.84394 -1.06324,-1.84396 2.7128,-0.33597 2.71672,-0.33599 z m 18.66129,-10.7668 -1.25477,1.65644 -1.25086,1.65252 -0.80914,-1.3986 -0.80916,-1.40249 4.12001,-0.50787 z m 18.65739,-10.76289 -0.85215,1.12512 -0.85606,1.12903 -1.10231,-1.90646 1.40721,-0.1758 z m 18.69647,-10.79024 -0.96942,1.28139 -0.31271,-0.53911 -0.31272,-0.54304 1.59485,-0.19533 z m 18.66129,-10.76679 -0.0859,0.11329 -0.086,0.1094 -0.0547,-0.0937 -0.0586,-0.0977 0.28146,-0.0391 z m -447.87883,283.99965 -1.22351,1.61736 -1.21959,1.61736 -0.7896,-1.36734 -0.79353,-1.36733 z m 27.01079,-15.58764 -7.13383,9.44244 -7.13381,9.44633 -4.61647,-7.98914 -4.61255,-7.98916 11.74636,-1.45329 11.7503,-1.45328 z m 19.33363,-11.15747 -7.25109,9.5948 -7.24719,9.59089 -9.38146,-16.23615 11.93792,-1.47281 11.93791,-1.47673 z m 19.1851,-11.07152 -7.25111,9.5948 -7.24327,9.59089 -4.69072,-8.11417 -4.69074,-8.11807 11.94182,-1.47282 11.93792,-1.4767 z m 19.18507,-11.0715 -7.24717,9.59479 -7.24718,9.59088 -9.38146,-16.23614 11.94181,-1.47672 11.93792,-1.47673 z m 19.1851,-11.07153 -7.25109,9.5948 -7.24719,9.59089 -4.69073,-8.11808 -4.68682,-8.11807 23.87583,-2.95344 z m 19.11082,-11.02463 -7.18854,9.51666 -7.19246,9.51666 -4.65164,-8.05165 -4.65166,-8.05557 11.84411,-1.46501 z m 18.69646,-10.79025 -6.82109,9.02834 -6.82111,9.03223 -4.41319,-7.63755 -4.4132,-7.64146 11.23429,-1.38686 11.2343,-1.39078 z m 18.6613,-10.76678 -6.4263,8.50093 -6.4224,8.50091 -4.1552,-7.19218 -4.15912,-7.19219 10.58542,-1.30874 10.5776,-1.31265 z m 18.69648,-10.78633 -6.05886,8.01259 -6.05105,8.01258 -3.91676,-6.78199 -3.92067,-6.77807 9.97172,-1.23451 9.97171,-1.2306 z m 18.6222,-10.74726 -11.25775,14.90005 -3.63924,-6.30146 -3.64312,-6.30147 9.272,-1.14856 9.26419,-1.14856 z m 18.69648,-10.78633 -5.25754,6.95777 -5.26143,6.95781 -3.40078,-5.88347 -3.4047,-5.89126 8.65832,-1.07043 8.66221,-1.07432 z m 18.66128,-10.76681 -4.86271,6.4343 -4.85881,6.4343 -3.14281,-5.442 -3.1467,-5.44591 8.00551,-0.98839 8.00944,-0.9923 z m 18.69649,-10.78633 -4.49139,5.94206 -4.49138,5.94596 -5.80867,-10.05579 14.79144,-1.82831 z m 18.65737,-10.76678 -4.09266,5.41465 -4.09266,5.41856 -5.2927,-9.16507 6.73901,-0.83602 6.74292,-0.83212 z m 18.70039,-10.79025 -3.72523,4.93023 -3.72522,4.92631 -4.81583,-8.33684 6.13314,-0.75789 z m 18.6222,-10.74334 -3.29914,4.36375 -3.29916,4.35984 -2.13428,-3.6918 -2.13037,-3.69182 5.42951,-0.66803 z m 18.65738,-10.76682 -2.90042,3.83636 -2.89654,3.84027 -3.75259,-6.49288 4.77674,-0.58992 z m 18.69648,-10.78632 -2.52909,3.34802 -2.533,3.34803 -1.63393,-2.83235 -1.63786,-2.83234 4.16694,-0.51958 z m 18.66128,-10.76679 -2.13036,2.82061 -2.13428,2.82064 -1.37986,-2.39091 -1.37986,-2.38697 3.51414,-0.43363 3.51022,-0.43365 z m 18.69649,-10.79024 -3.52587,4.66457 -1.14141,-1.97287 -1.14142,-1.97678 2.90045,-0.3555 2.90432,-0.35942 z m 18.66128,-10.7668 -1.36421,1.8088 -1.36423,1.80488 -0.88342,-1.52752 -0.88342,-1.5236 z m 18.65739,-10.76289 -0.9655,1.27749 -0.96552,1.28139 -0.62543,-1.08214 -0.62542,-1.07825 1.59092,-0.19924 1.59095,-0.19534 z m 18.66128,-10.7668 -0.56678,0.75009 -0.5707,0.75399 -0.36744,-0.63678 -0.37136,-0.63679 0.93814,-0.11721 0.93425,-0.1133 z m 18.69649,-10.79023 -0.19545,0.26566 -0.20326,0.26565 -0.129,-0.2266 -0.13291,-0.22267 0.32836,-0.0391 0.32835,-0.043 z m -442.64868,280.9837 -5.28489,6.99295 -5.2888,6.99685 -3.41641,-5.91861 -3.42033,-5.91862 8.70913,-1.08216 8.70521,-1.07432 z m 21.78453,-12.57169 -7.24717,9.5948 -7.2511,9.59087 -4.68681,-8.11805 -4.69074,-8.11418 11.94182,-1.47672 11.93792,-1.48063 z m 19.18511,-11.07151 -7.25111,9.5987 -7.24327,9.59089 -4.69073,-8.11808 -4.69073,-8.11415 11.93792,-1.47673 z m 19.18508,-11.06762 -7.24719,9.59479 -7.24326,9.59089 -4.69073,-8.11806 -4.69073,-8.11417 11.94182,-1.47673 11.934,-1.47672 z m 19.18509,-11.0715 -7.24718,9.59478 -7.24718,9.59089 -9.38147,-16.23614 11.94182,-1.47674 11.93791,-1.47671 z m 19.18509,-11.07152 -7.24717,9.59479 -7.24719,9.59088 -9.38146,-16.23614 11.94182,-1.47672 11.934,-1.47672 z m 19.18509,-11.07153 -7.25109,9.59479 -7.24718,9.5909 -4.69072,-8.11807 -4.68682,-8.11807 11.93789,-1.47282 11.93792,-1.48063 z m 18.77074,-10.8293 -6.93445,9.18069 -6.93838,9.17678 -8.97492,-15.53294 11.42582,-1.41422 11.41801,-1.41031 z m 18.66129,-10.7668 -6.53966,8.65329 -6.53575,8.6572 -8.45895,-14.64222 10.76524,-1.32827 10.76522,-1.33609 z m 18.66129,-10.76679 -12.28189,16.25177 -3.96757,-6.87575 -3.9715,-6.87575 10.11243,-1.25013 10.11244,-1.25405 z m 18.65739,-10.76288 -5.73831,7.59848 -5.74616,7.59848 -7.42698,-12.86077 z m 18.66129,-10.76681 -5.34744,7.07499 -5.34352,7.07108 -3.4555,-5.98502 -3.45549,-5.98113 8.79903,-1.08995 8.80292,-1.08606 z m 18.69649,-10.79024 -9.95219,13.1655 -3.21705,-5.56701 -3.21707,-5.5709 8.19316,-1.01185 z m 18.65738,-10.76679 -4.57738,6.05926 -4.57737,6.05535 -2.95907,-5.12557 -2.95906,-5.12165 7.53643,-0.92978 7.53645,-0.9337 z m 18.70038,-10.78633 -4.20994,5.56701 -4.20993,5.57092 -2.72063,-4.70753 -2.72062,-4.71145 13.86112,-1.71115 z m 18.65738,-10.76679 -3.80731,5.04352 -3.81122,5.03961 -2.46263,-4.2661 -2.46655,-4.26217 6.27386,-0.77743 6.27385,-0.77352 z m 18.66128,-10.7668 -3.4125,4.51611 -3.40859,4.51613 -2.20855,-3.82073 -2.20465,-3.81683 5.61715,-0.6993 z m 18.65741,-10.76679 -3.00991,3.99261 -3.01379,3.98871 -1.94666,-3.37536 -1.95055,-3.37537 4.96045,-0.61334 z m 18.66127,-10.76681 -5.23016,6.92265 -1.69258,-2.92612 -1.69256,-2.93 4.31156,-0.5313 z m 18.69649,-10.78633 -2.24373,2.97299 -2.24765,2.97298 -1.45412,-2.5159 -1.45413,-2.51199 3.69785,-0.46098 3.69786,-0.4571 z m 18.66127,-10.76679 -1.84892,2.44949 -1.84893,2.44167 -1.19613,-2.06663 -1.19223,-2.06664 3.04116,-0.37893 3.04115,-0.37504 z m 18.6574,-10.7668 -2.90043,3.83635 -0.93816,-1.62126 -0.93814,-1.62517 2.38446,-0.293 2.38445,-0.29692 z m 18.66129,-10.76679 -2.10302,2.78937 -0.68015,-1.17983 -0.68406,-1.1759 1.73166,-0.21095 1.73557,-0.21488 z m 18.69647,-10.78634 -0.68016,0.90245 -0.68404,0.90244 -0.44172,-0.7618 -0.44172,-0.7657 2.24374,-0.27347 z m 18.66129,-10.76679 -0.28535,0.37504 -0.28143,0.37894 -0.18374,-0.32034 -0.18372,-0.31643 0.46908,-0.0624 0.473,-0.0585 z m -466.00851,294.46173 -2.22028,2.93781 -2.21639,2.93392 -1.43456,-2.48465 -1.43459,-2.48073 3.65095,-0.44927 3.65487,-0.45318 z m 25.84201,-14.91178 -7.24716,9.59479 -7.25111,9.59088 -4.68681,-8.11807 -4.69074,-8.11807 11.94182,-1.47672 11.934,-1.47673 z m 19.1851,-11.07152 -7.25109,9.59479 -7.24718,9.59089 -9.38146,-16.23614 11.94182,-1.47673 11.93791,-1.47672 z m 19.18509,-11.07152 -7.2511,9.59478 -7.24327,9.5909 -9.38146,-16.23614 11.93791,-1.47281 11.93792,-1.48063 z m 19.18509,-11.07152 -7.25107,9.59479 -7.2433,9.59089 -9.38146,-16.23613 11.94183,-1.47283 11.934,-1.48062 z m 19.18508,-11.07151 -14.49435,19.18959 -4.69073,-8.11808 -4.69074,-8.11415 11.94183,-1.47673 z m 19.1851,-11.06762 -7.24718,9.5948 -7.24719,9.59089 -4.69073,-8.11807 -4.69072,-8.11416 L 224,489.0246 Z m 19.18509,-11.0715 -7.25108,9.59478 -7.24328,9.59089 -4.69073,-8.11807 -4.68682,-8.11807 11.93791,-1.47283 11.93791,-1.48063 z m 18.88411,-10.89573 -7.02437,9.29399 -7.02047,9.29397 -4.54218,-7.86412 -4.53828,-7.86025 23.1253,-2.85968 z m 18.69647,-10.79023 -6.65303,8.80564 -6.65301,8.80175 -4.30375,-7.44614 -4.29985,-7.44611 10.95677,-1.35952 z m 18.66129,-10.76681 -6.2543,8.27826 -6.25823,8.27824 -4.04184,-7.00468 -4.04577,-7.00075 10.30009,-1.27358 z m 18.65739,-10.76288 -5.85559,7.74694 -5.85561,7.75084 -3.78777,-6.55932 -3.78776,-6.55538 z m 18.66128,-10.76679 -10.91376,14.44688 -3.52978,-6.11004 -3.52977,-6.11396 8.98666,-1.10948 z m 18.65739,-10.76681 -10.11635,13.39209 -3.27178,-5.66468 -3.27178,-5.66859 16.65991,-2.06271 z m 18.70038,-10.79023 -9.38145,12.41541 -3.03335,-5.25448 -3.03333,-5.25056 15.44813,-1.91427 z m 18.65739,-10.76288 -4.28811,5.6803 -4.29595,5.68032 -2.77533,-4.80523 -2.77926,-4.80522 7.07128,-0.87508 z m 18.69647,-10.79025 -3.92457,5.19198 -3.92067,5.19588 -2.53692,-4.39501 -2.5408,-4.39111 6.46148,-0.80087 6.45757,-0.80087 z m 18.66129,-10.76679 -3.52195,4.66458 -3.52587,4.66456 -2.28282,-3.94574 -2.27891,-3.94575 5.80087,-0.71883 5.80478,-0.71882 z m 18.62221,-10.74336 -3.09588,4.10202 -3.09979,4.10199 -4.01058,-6.93824 5.10508,-0.62897 5.10117,-0.6329 z m 18.69646,-10.78633 -2.72843,3.61368 -2.72845,3.60977 -1.76684,-3.05111 -1.76293,-3.05502 4.49138,-0.55475 4.49527,-0.55866 z m 18.69648,-10.79023 -2.35709,3.12142 -2.361,3.12146 -1.5245,-2.64093 -1.52838,-2.6409 3.88548,-0.48053 3.88158,-0.48052 z m 18.66129,-10.76681 -1.96229,2.59795 -1.95837,2.59403 -2.54082,-4.39111 6.4654,-0.79695 z m 18.69648,-10.78631 -1.59094,2.10569 -1.59094,2.1096 -1.03195,-1.78144 -1.02806,-1.78144 2.6229,-0.32426 2.61899,-0.32035 z m 18.6222,-10.74336 -1.16485,1.53923 -1.16489,1.54313 -0.7544,-1.30483 -0.75052,-1.30092 3.83857,-0.47661 z m 18.69648,-10.79023 -1.59486,2.10959 -0.51597,-0.89072 -0.51207,-0.89073 1.30949,-0.16407 z m 18.66129,-10.76681 -0.39871,0.52741 -0.39871,0.52349 -0.258,-0.44536 -0.25798,-0.44927 1.3134,-0.16408 z m -488.01588,307.15841 -0.20325,0.26566 -0.19544,0.26566 -0.12901,-0.22659 -0.129,-0.22268 0.32835,-0.0391 z m 27.16327,-15.66968 -6.22697,8.23919 -6.22303,8.23918 -8.05243,-13.93901 20.50632,-2.53936 z m 20.53757,-11.85284 -7.24718,9.59479 -7.25109,9.59088 -4.68681,-8.11806 -4.69074,-8.11416 11.94181,-1.47672 11.93401,-1.48063 z m 19.18509,-11.07152 -7.2511,9.5948 -7.25108,9.59088 -4.68681,-8.11806 -4.69074,-8.11417 11.94181,-1.47672 11.93792,-1.48063 z m 19.18509,-11.07151 -7.25108,9.59479 -7.24719,9.59089 -4.69073,-8.11807 -4.69074,-8.11417 11.93793,-1.47672 11.93791,-1.48063 z m 19.18509,-11.06761 -7.25109,9.59479 -7.24327,9.59088 -4.69073,-8.11806 -4.69074,-8.11418 11.94184,-1.47671 z m 19.18509,-11.07151 -7.24717,9.59478 -7.24719,9.59089 -9.38146,-16.23614 11.94181,-1.47281 11.93401,-1.48064 z m 19.1851,-11.07154 -7.24718,9.5948 -7.24719,9.59089 -4.69073,-8.11807 -4.69072,-8.11416 11.94181,-1.47672 11.93401,-1.48063 z m 19.18508,-11.07151 -7.25108,9.5948 -7.24326,9.59089 -4.69074,-8.11807 -4.69073,-8.11417 11.9379,-1.47673 11.93791,-1.48062 z m 19.03656,-10.98167 -7.13383,9.44245 -7.13381,9.44634 -4.61646,-7.98916 -4.61256,-7.98914 11.74638,-1.45328 11.75028,-1.45329 z m 18.66129,-10.76678 -6.73512,8.91503 -6.73901,8.91503 -4.35456,-7.54379 -4.35847,-7.54378 22.18716,-2.7503 z m 18.65739,-10.7668 -6.34032,8.39153 -6.3403,8.38764 -4.10047,-7.09452 -4.10049,-7.09843 z m 18.69647,-10.78633 -5.96504,7.89929 -5.97288,7.90321 -7.72407,-13.36863 9.831,-1.21498 9.82709,-1.21889 z m 18.6222,-10.74336 -5.54288,7.33283 -5.54287,7.33675 -7.16901,-12.41542 9.12737,-1.12512 z m 18.70039,-10.79023 -5.17546,6.8484 -5.17543,6.84449 -3.34604,-5.78969 -3.34607,-5.7936 z m 18.69647,-10.78634 -4.80409,6.35617 -4.80801,6.36007 -3.1076,-5.37949 -3.1037,-5.3795 7.90779,-0.98058 z m 18.65738,-10.76678 -8.81077,11.65751 -2.8496,-4.93022 -2.85353,-4.93413 7.2589,-0.89464 7.2511,-0.89852 z m 18.69647,-10.79024 -4.03403,5.34433 -4.03792,5.34042 -2.6151,-4.52001 -2.60725,-4.51613 13.29039,-1.64861 z m 18.66128,-10.7668 -3.63922,4.81692 -3.6353,4.81694 -2.35319,-4.07466 -2.35318,-4.07075 11.98481,-1.48455 z m 18.62222,-10.74335 -6.42631,8.50092 -4.15129,-7.18828 z m 18.69647,-10.78634 -2.84181,3.76213 -2.8457,3.76213 -1.83721,-3.18003 -1.84111,-3.18785 4.6829,-0.57818 4.67903,-0.5782 z m 18.66129,-10.76679 -4.88617,6.46945 -1.58312,-2.73858 -1.57921,-2.73857 8.05242,-0.9923 z m 18.69648,-10.79023 -2.07566,2.74638 -2.07173,2.7464 -1.34468,-2.32447 -1.34077,-2.32448 3.41642,-0.42191 3.42033,-0.42583 z m 18.66129,-10.76681 -1.68085,2.22291 -1.67693,2.21899 -1.08278,-1.87912 -1.08669,-1.8752 z m 18.65738,-10.76288 -1.27821,1.6916 -1.27824,1.68767 -0.82868,-1.42985 -0.82479,-1.42984 2.10301,-0.26174 z m 18.6613,-10.7668 -0.87952,1.16419 -0.88342,1.1681 -1.1414,-1.97678 1.45412,-0.17579 z m 18.65737,-10.7668 -0.96941,1.28139 -0.31272,-0.53912 -0.3127,-0.54302 0.79742,-0.0976 z m 18.69649,-10.79023 -0.11337,0.15235 -0.11337,0.14847 -0.0742,-0.12892 -0.0742,-0.12501 0.18762,-0.0234 0.18374,-0.0234 z m -502.64706,315.60463 -3.35386,4.4419 -3.35779,4.4419 -2.16554,-3.75823 -2.16948,-3.75431 11.04667,-1.36734 z m 24.341,-14.04449 -7.24717,9.5948 -7.2511,9.59088 -4.68682,-8.11806 -4.69073,-8.11417 z m 19.1851,-11.07151 -7.2511,9.59479 -7.25109,9.5909 -4.68681,-8.11418 -4.69074,-8.11806 11.94181,-1.47673 11.93401,-1.47672 z m 19.18508,-11.07152 -7.24717,9.5948 -7.2511,9.59088 -4.68681,-8.11416 -4.69074,-8.11807 11.94182,-1.47673 z m 19.18509,-11.07152 -7.25109,9.5948 -7.24717,9.59089 -9.38147,-16.23614 11.94182,-1.47283 11.93791,-1.48063 z m 19.1851,-11.06761 -7.25109,9.5948 -7.24327,9.59088 -9.38146,-16.23614 11.94181,-1.47281 z m 19.18509,-11.07152 -7.24718,9.5948 -7.24719,9.59089 -4.69072,-8.11417 -4.69073,-8.11807 11.94182,-1.47281 11.934,-1.47673 z m 19.18508,-11.07151 -7.24719,9.5948 -7.24715,9.59088 -4.69074,-8.11417 -4.69073,-8.11806 11.94181,-1.47282 11.934,-1.47672 z m 19.18509,-11.07152 -7.25108,9.5948 -7.24327,9.59089 -4.69074,-8.11417 -4.69073,-8.11807 11.93792,-1.47282 z m 19.1851,-11.07151 -7.25108,9.59479 -7.24719,9.59089 -4.69074,-8.11417 -4.6868,-8.11805 11.9379,-1.47283 z m 18.66129,-10.7668 -13.70474,18.13479 -4.42884,-7.6688 -4.43275,-7.67272 11.28122,-1.39468 z m 18.6574,-10.76679 -6.44977,8.53998 -6.45366,8.54 -4.17476,-7.22345 -4.17475,-7.22734 10.62841,-1.31656 10.62453,-1.31654 z m 18.69646,-10.78634 -6.08231,8.05167 -6.08232,8.04775 -7.87261,-13.61867 10.01863,-1.24233 z m 18.62611,-10.74335 -5.66013,7.48129 -5.65627,7.48908 -7.31753,-12.66543 9.31502,-1.15248 9.315,-1.14857 z m 18.69648,-10.79024 -5.28881,6.99686 -5.2927,6.99685 -3.41642,-5.91861 -3.41642,-5.92251 8.70522,-1.07825 8.70913,-1.07824 z m 18.65737,-10.7668 -4.88617,6.47337 -4.89009,6.46945 -6.32466,-10.94651 8.05241,-0.9962 z m 18.69647,-10.78632 -4.51481,5.98112 -4.52266,5.98503 -2.92779,-5.05916 -2.91999,-5.06304 7.44263,-0.92197 7.44262,-0.91808 z m 18.6613,-10.7668 -4.12393,5.45372 -4.12004,5.45372 -2.66589,-4.61378 -2.66589,-4.61769 6.78982,-0.83604 z m 18.6613,-10.76681 -3.72522,4.93024 -3.72523,4.92632 -2.4079,-4.16844 -2.4079,-4.17231 6.13311,-0.7579 6.13314,-0.7618 z m 18.65738,-10.76678 -3.32259,4.40282 -3.32651,4.40283 -4.29985,-7.45394 5.47251,-0.67586 5.47644,-0.67976 z m 18.66129,-10.76288 -2.92778,3.8715 -2.92781,3.87542 -1.89584,-3.27769 -1.89193,-3.2777 4.82364,-0.59773 4.82364,-0.5938 z m 18.69648,-10.79024 -5.11289,6.77417 -1.65739,-2.8675 -1.65349,-2.86359 4.20994,-0.5235 4.21774,-0.51958 z m 18.65738,-10.76681 -2.15773,2.85969 -2.15775,2.85579 -1.39549,-2.41823 -1.3994,-2.41824 3.55714,-0.43754 z m 18.70039,-10.78632 -1.79422,2.36744 -1.79029,2.37136 -1.15705,-2.00412 -1.16094,-2.00803 2.94734,-0.36334 2.95125,-0.36331 z m 18.65737,-10.7668 -1.39157,1.84395 -1.3955,1.84394 -0.90297,-1.56266 -0.90296,-1.55876 2.29455,-0.28519 2.29455,-0.28128 z m 18.6613,-10.76679 -0.99678,1.31654 -0.99287,1.31655 -1.28995,-2.2268 1.63785,-0.20706 1.63785,-0.19923 z m 18.65739,-10.76679 -0.59417,0.78913 -0.59806,0.78915 -0.38309,-0.66413 -0.38697,-0.67195 0.98504,-0.1172 z m 18.66129,-10.7668 -0.19937,0.26565 -0.19545,0.26565 -0.12899,-0.22659 -0.13289,-0.22268 0.32835,-0.0391 z m -525.48308,328.78185 -0.68408,0.90244 -0.68015,0.89853 -0.44171,-0.7618 -0.43781,-0.7657 z m 27.34694,-15.77905 -6.84846,9.06738 -6.85237,9.06739 -4.43274,-7.67271 -4.43274,-7.66881 11.28512,-1.39858 z m 19.71282,-11.37624 -7.24719,9.5948 -7.25108,9.59087 -4.68682,-8.11416 -4.69074,-8.11807 z m 19.18508,-11.06762 -7.25107,9.59479 -7.2511,9.59089 -4.68682,-8.11806 -4.69074,-8.11808 11.94183,-1.47672 11.9379,-1.47673 z m 19.18509,-11.07152 -7.24718,9.5948 -7.25109,9.59088 -4.68682,-8.11416 -4.69074,-8.11807 11.94183,-1.47672 z m 19.1851,-11.07151 -7.25109,9.59479 -7.24718,9.59089 -4.69072,-8.11417 -4.69074,-8.11807 11.9379,-1.47281 11.93792,-1.47672 z m 19.18508,-11.07152 -7.25107,9.5948 -7.24328,9.59089 -4.69073,-8.11417 -4.69072,-8.11806 11.93789,-1.47283 11.93791,-1.47672 z m 19.1851,-11.07152 -7.24719,9.5948 -7.24717,9.59089 -9.38147,-16.23614 11.94182,-1.47672 11.93401,-1.47674 z m 19.18508,-11.0715 -7.25107,9.59478 -7.24719,9.59089 -9.38145,-16.23614 11.9418,-1.47672 11.93791,-1.47673 z m 19.1851,-11.07153 -7.25109,9.59479 -7.24327,9.59089 -9.38145,-16.23614 23.87581,-2.95344 z m 19.18509,-11.07151 -7.25109,9.59478 -7.24718,9.5909 -4.69073,-8.11807 -4.68682,-8.11808 11.93399,-1.47281 11.93791,-1.48063 z m 18.77074,-10.8293 -6.93445,9.18067 -6.9384,9.17679 -8.97491,-15.53294 11.42583,-1.41423 11.41803,-1.41029 z m 18.69649,-10.78634 -6.56704,8.68844 -6.56702,8.69236 -8.49805,-14.70473 10.81214,-1.33608 10.81606,-1.33999 z m 18.66128,-10.76679 -12.33662,16.32208 -3.99102,-6.90699 -3.98713,-6.90701 10.15934,-1.25405 z m 18.66129,-10.7668 -5.7696,7.63755 -5.7735,7.63756 -3.72914,-6.46165 -3.73304,-6.45773 9.50264,-1.17982 9.50657,-1.172 z m 18.65739,-10.76679 -5.37089,7.10623 -5.37088,7.11406 -3.47506,-6.01628 -3.47114,-6.01627 8.84203,-1.09778 8.84985,-1.09388 z m 18.69648,-10.79024 -4.99954,6.62181 -5.00346,6.6179 -3.2366,-5.60216 -3.23269,-5.60218 8.23614,-1.01964 8.24004,-1.01964 z m 18.66128,-10.7629 -4.60473,6.09442 -4.60083,6.09441 -5.95723,-10.31363 15.1667,-1.8752 z m 18.69647,-10.79023 -4.23338,5.60217 -4.23339,5.60607 -2.74017,-4.7388 -2.74015,-4.7427 6.97354,-0.86726 z m 18.6613,-10.76679 -7.67716,10.15736 -4.96436,-8.5947 6.31684,-0.78133 6.32468,-0.78524 z m 18.65738,-10.76681 -3.43986,4.55519 -3.43988,4.55128 -2.22419,-3.85198 -2.22809,-3.85198 5.66797,-0.69929 z m 18.66129,-10.76288 -3.04115,4.01997 -3.04117,4.02778 -1.9701,-3.40272 -1.96619,-3.40661 5.00735,-0.61726 5.01126,-0.61726 z m 18.66129,-10.7668 -2.64635,3.49648 -2.64244,3.50037 -1.70821,-2.96126 -1.71212,-2.96124 8.70912,-1.07044 z m 18.69648,-10.79023 -2.275,3.01205 -2.275,3.00814 -1.46586,-2.54325 -1.47368,-2.54715 3.74478,-0.4649 3.74867,-0.46099 z m 18.65738,-10.7668 -1.87238,2.48074 -1.88019,2.48464 -2.43138,-4.20358 3.09199,-0.38285 3.08805,-0.38676 z m 18.69647,-10.78633 -3.00988,3.98481 -0.97333,-1.68768 -0.97723,-1.68769 2.48219,-0.30861 2.48217,-0.30473 z m 18.62221,-10.74335 -1.07886,1.42593 -1.08278,1.42985 -1.39159,-2.42214 1.77857,-0.21877 1.77466,-0.21878 z m 18.70039,-10.79024 -0.71534,0.93759 -0.71143,0.94152 -0.91469,-1.59393 1.16877,-0.14846 1.17269,-0.14453 z m 18.65738,-10.76679 -0.62543,0.82821 -0.20326,-0.3516 -0.19936,-0.34769 0.51598,-0.0624 z m -520.63209,325.98076 -4.46401,5.90689 -4.4601,5.9069 -5.77742,-9.99328 7.3488,-0.90635 7.35273,-0.91025 z m 22.87123,-13.20066 -7.25108,9.5948 -7.24719,9.5909 -4.68682,-8.11808 -4.69074,-8.11416 11.93402,-1.47673 11.94181,-1.48063 z m 19.18508,-11.0715 -7.24717,9.59478 -7.25109,9.59089 -4.68682,-8.11807 -4.69074,-8.11415 11.93792,-1.47674 11.9379,-1.48063 z m 19.18511,-11.07152 -7.24719,9.5948 -7.25109,9.59087 -4.68683,-8.11807 -4.69073,-8.11025 11.94182,-1.48063 11.93402,-1.48064 z m 19.18508,-11.07151 -7.24717,9.59478 -7.25111,9.5909 -4.6868,-8.11809 -4.69074,-8.11024 11.94181,-1.48063 11.93401,-1.48064 z m 19.18509,-11.07153 -7.24719,9.5987 -7.24717,9.59088 -4.69073,-8.11805 -4.69074,-8.11418 11.93792,-1.47672 z m 19.18508,-11.0676 -7.24716,9.59479 -7.24327,9.59088 -4.69074,-8.11807 -4.69073,-8.11417 11.9379,-1.47671 z m 19.18511,-11.07153 -7.24718,9.5948 -7.2472,9.59089 -9.38144,-16.23615 11.94181,-1.47671 11.9379,-1.47673 z m 19.18508,-11.07151 -7.24718,9.59479 -7.24717,9.5909 -9.38146,-16.23615 11.9418,-1.47283 11.93401,-1.48062 z m 19.18509,-11.07151 -7.25109,9.59479 -7.24326,9.59088 -4.69074,-8.11807 -4.68682,-8.11417 11.93791,-1.47672 11.93791,-1.48063 z m 19.18509,-11.07152 -7.24717,9.59479 -7.24718,9.59088 -4.69074,-8.11807 -4.68682,-8.11417 11.93401,-1.47671 11.9379,-1.48063 z m 18.9232,-10.91916 -7.05174,9.32913 -7.04782,9.33305 -4.55782,-7.89539 -4.56174,-7.89539 23.21912,-2.87531 z m 18.65737,-10.76681 -6.65301,8.80566 -6.65302,8.80174 -4.30375,-7.44612 -4.29983,-7.44613 10.95675,-1.35561 z m 18.69647,-10.78632 -6.28167,8.31341 -6.28166,8.31731 -4.0653,-7.03592 -4.06139,-7.03202 10.34696,-1.28139 z m 18.66131,-10.76679 -5.88687,7.78991 -5.88686,7.786 -3.80341,-6.59056 -3.8073,-6.58665 9.69417,-1.19935 z m 18.65739,-10.7668 -5.48427,7.26251 -5.48815,7.25861 -3.54932,-6.1413 -3.54541,-6.1452 z m 18.66129,-10.76679 -5.08946,6.73511 -5.08552,6.73509 -6.58267,-11.39185 8.37687,-1.03919 8.38078,-1.03526 z m 18.69646,-10.78633 -9.43618,12.48573 -6.10577,-10.56365 z m 18.6613,-10.76681 -4.31938,5.71938 -4.32329,5.71545 -2.7949,-4.83644 -2.79489,-4.84037 7.11428,-0.87902 z m 18.69648,-10.79023 -7.90389,10.46207 -2.55645,-4.42626 -2.55645,-4.42236 13.01679,-1.60955 z m 18.65739,-10.76288 -3.54934,4.69972 -3.55322,4.69974 -2.29845,-3.97701 -2.30238,-3.977 5.85169,-0.72272 5.8517,-0.72664 z m 18.66127,-10.76681 -6.30901,8.35248 -2.04439,-3.53163 -2.03657,-3.53164 z m 18.66129,-10.76679 -2.7597,3.64884 -2.75971,3.65273 -1.77858,-3.09017 -1.78248,-3.08628 4.5383,-0.56256 z m 18.69649,-10.79022 -2.38836,3.16439 -2.39228,3.16051 -1.54012,-2.67608 -1.54404,-2.67608 7.8648,-0.97667 z m 18.65738,-10.76291 -3.97931,5.2662 -1.28995,-2.2268 -1.28604,-2.23071 3.27569,-0.40631 3.2757,-0.40238 z m 18.70038,-10.79023 -3.24442,4.28953 -1.0476,-1.81661 -1.0476,-1.8127 5.33962,-0.66413 z m 18.62221,-10.74336 -1.19614,1.57829 -1.19223,1.58221 -0.77007,-1.33999 -0.77005,-1.33608 3.9324,-0.48443 z m 18.65737,-10.7668 -0.79351,1.0548 -0.79742,1.05481 -0.51598,-0.89072 -0.51207,-0.89072 1.3134,-0.16408 1.30949,-0.16409 z m 18.69648,-10.78632 -0.42217,0.56256 -0.42606,0.55866 -0.27754,-0.47661 -0.27362,-0.47661 0.69969,-0.0859 z m -522.43802,327.01994 -6.42629,8.50093 -4.15131,-7.18828 z m 23.96573,-13.82962 -6.82109,9.03222 -6.82111,9.02833 -4.41319,-7.63364 -4.41321,-7.64146 22.4686,-2.78155 z m 19.74799,-11.39577 -7.2511,9.59479 -7.24718,9.59089 -4.68681,-8.11417 -4.69074,-8.11417 11.93791,-1.48063 z m 19.18508,-11.07152 -7.24718,9.59479 -7.25108,9.59089 -4.68682,-8.11416 -4.69074,-8.11807 11.94182,-1.48063 11.934,-1.47673 z m 19.1851,-11.07152 -7.2511,9.59479 -7.24327,9.59089 -4.69073,-8.11807 -4.69074,-8.11417 11.94184,-1.48063 11.934,-1.47672 z m 19.18508,-11.07151 -7.25108,9.59478 -7.24328,9.59089 -4.69072,-8.11807 -4.69073,-8.11416 11.9379,-1.47672 11.93791,-1.48063 z m 19.1851,-11.06762 -7.24718,9.5948 -7.24328,9.59089 -4.69073,-8.11807 -4.69072,-8.11417 11.9379,-1.47674 z m 19.18509,-11.07151 -7.2511,9.59479 -7.24717,9.59088 -4.69073,-8.11807 -4.68683,-8.11416 11.9379,-1.48062 11.93793,-1.47673 z m 19.18509,-11.07152 -7.24718,9.5948 -7.24719,9.59088 -4.69072,-8.11807 -4.68682,-8.11416 11.9379,-1.48063 11.93401,-1.47673 z m 19.18508,-11.07152 -7.24717,9.59478 -7.24718,9.59091 -4.69073,-8.11808 -4.68683,-8.11807 11.93792,-1.47281 11.93791,-1.48063 z m 19.1851,-11.07151 -7.24718,9.59479 -7.24719,9.59089 -4.69073,-8.11807 -4.68681,-8.11807 11.93399,-1.47283 11.93792,-1.48062 z m 19.03654,-10.98167 -7.13381,9.44243 -7.13382,9.44634 -4.61647,-7.99305 -4.61254,-7.98524 11.74637,-1.45329 11.75027,-1.45329 z m 18.69648,-10.78633 -6.76247,8.9541 -6.76638,8.9502 -4.378,-7.57505 -4.37412,-7.57504 11.14048,-1.37905 z m 18.69649,-10.79023 -6.39504,8.46576 -6.39503,8.46187 -4.13957,-7.16095 -4.13566,-7.15702 10.53459,-1.30483 z m 18.66128,-10.7668 -5.99631,7.93836 -6.00023,7.93837 -3.87767,-6.71557 -3.88159,-6.71558 z m 18.66129,-10.7668 -5.60151,7.41487 -5.59761,7.41096 -7.24718,-12.54042 9.22121,-1.14075 9.22509,-1.14075 z m 18.65739,-10.76288 -5.1989,6.88356 -5.2028,6.88356 -6.73121,-11.64971 8.56451,-1.06261 8.56449,-1.0548 z m 18.69646,-10.79024 -4.83143,6.39522 -4.83146,6.39913 -3.12715,-5.41072 -3.12717,-5.41466 7.95471,-0.98059 7.95859,-0.98448 z m 18.66131,-10.76679 -4.43666,5.87173 -4.43272,5.86782 -2.86527,-4.96537 -2.86917,-4.9654 7.30191,-0.90244 z m 18.66129,-10.76681 -4.03794,5.34433 -4.03795,5.34043 -2.61116,-4.52002 -2.61118,-4.51612 6.64521,-0.82431 z m 18.69647,-10.78632 -3.67049,4.85209 -3.66659,4.85599 -2.36883,-4.1059 -2.37272,-4.10592 12.07863,-1.49236 z m 18.62219,-10.74335 -3.24051,4.28562 -3.2405,4.28953 -2.09519,-3.62931 -2.09129,-3.6293 5.3357,-0.66023 5.33962,-0.65631 z m 18.69649,-10.79024 -2.86917,3.80119 -2.87697,3.79729 -1.85284,-3.21519 -1.85675,-3.2113 9.45962,-1.17199 z m 18.65738,-10.7668 -2.47046,3.27379 -2.47044,3.26989 -1.59877,-2.76983 -1.59875,-2.76594 8.14623,-1.00791 z m 18.70038,-10.78633 -4.20603,5.56311 -1.36031,-2.35182 -1.36032,-2.35573 3.46334,-0.42973 z m 18.65739,-10.7668 -1.70822,2.25806 -1.70429,2.25806 -1.10623,-1.91427 -1.10231,-1.91036 2.81052,-0.34379 2.80662,-0.3477 z m 18.66129,-10.76679 -1.30951,1.73065 -1.30948,1.73456 -0.84433,-1.46499 -0.84826,-1.46502 2.15774,-0.26174 2.15384,-0.26956 z m 18.65738,-10.7668 -0.90687,1.20325 -0.91079,1.20326 -0.59025,-1.01573 -0.58634,-1.01574 z m 18.6613,-10.76679 -0.51208,0.67975 -0.50815,0.67585 -0.33227,-0.57037 -0.33226,-0.57428 0.84043,-0.10549 z m 18.69647,-10.78633 -0.14072,0.18751 -0.14073,0.19144 -0.18763,-0.32036 0.23455,-0.0312 z m -525.48308,328.78185 -0.62544,0.82431 -0.62543,0.82822 -0.40653,-0.69929 -0.40262,-0.70321 2.0561,-0.25003 z m 24.18853,-13.96245 -4.40538,5.83267 -4.40929,5.82875 -2.84962,-4.93023 -2.84961,-4.93412 7.25108,-0.89854 7.25891,-0.89853 z m 22.83214,-13.17332 -7.16119,9.48151 -7.16509,9.47759 -4.63601,-8.0204 -4.6321,-8.02041 11.7972,-1.46109 z m 19.29846,-11.13793 -7.2511,9.5948 -7.24719,9.59088 -4.69073,-8.11416 -4.69073,-8.11807 11.94183,-1.47672 z m 19.18508,-11.07151 -7.2511,9.59479 -7.24327,9.59089 -9.38145,-16.22832 11.94181,-1.47673 11.93792,-1.48063 z m 19.18508,-11.07152 -7.24717,9.5948 -7.24719,9.59088 -9.38146,-16.22833 11.94181,-1.47672 z m 19.1851,-11.07151 -7.25108,9.59479 -7.24719,9.59089 -4.69073,-8.11807 -4.68683,-8.11417 11.93792,-1.47673 11.93791,-1.48063 z m 19.18508,-11.07152 -7.24717,9.5948 -7.24718,9.59089 -4.69073,-8.11809 -4.68682,-8.11414 11.93791,-1.47674 11.93399,-1.48062 z m 19.1851,-11.07152 -7.24718,9.5948 -7.2511,9.59089 -4.69071,-8.11807 -4.68684,-8.11418 11.93791,-1.47672 11.93792,-1.48063 z m 19.18509,-11.07151 -7.24717,9.59479 -7.2472,9.59089 -4.69072,-8.11808 -4.68681,-8.11416 11.93789,-1.47672 11.93792,-1.48063 z m 19.18509,-11.06762 -7.24326,9.5948 -7.25109,9.59089 -4.69074,-8.11807 -4.68682,-8.11808 11.93793,-1.47281 z m 18.69647,-10.78633 -6.87582,9.10256 -6.87974,9.10646 -4.45229,-7.70397 -4.44838,-7.70395 11.32811,-1.40251 11.32423,-1.39859 z m 18.6613,-10.76678 -6.47713,8.57905 -6.48492,8.57515 -4.19038,-7.25469 -4.19431,-7.25862 10.67533,-1.32435 10.67141,-1.32046 z m 18.69646,-10.79025 -6.11357,8.09073 -6.10968,8.08682 -7.90389,-13.68899 10.06554,-1.24233 z m 18.62222,-10.74336 -5.6836,7.52036 -5.68361,7.52815 -3.67831,-6.36787 -3.68222,-6.36789 9.36582,-1.15637 9.36192,-1.16028 z m 18.69647,-10.78632 -5.31226,7.03201 -5.31616,7.03202 -3.43595,-5.94988 -3.44377,-5.95376 8.75602,-1.08606 8.75212,-1.08215 z m 18.6613,-10.7668 -9.83491,13.01704 -3.17797,-5.50841 -3.17797,-5.50451 8.09932,-1.00401 8.09933,-1.00011 z m 18.66128,-10.76679 -4.52263,5.98111 -4.52265,5.98504 -2.91998,-5.06306 -2.9239,-5.05915 7.44262,-0.91806 7.44654,-0.92198 z m 18.69647,-10.79024 -4.15129,5.49669 -4.14739,5.49278 -2.68543,-4.64894 -2.68154,-4.64504 6.83283,-0.84383 6.83674,-0.84774 z m 18.65738,-10.7629 -7.50516,9.93077 -2.42745,-4.20357 -2.42746,-4.19968 6.18004,-0.76961 6.18003,-0.7618 z m 18.6613,-10.76678 -3.35386,4.43799 -3.3578,4.44188 -4.33892,-7.50863 5.52725,-0.68368 5.52333,-0.68366 z m 18.65739,-10.76681 -5.91032,7.82117 -1.91148,-3.30504 -1.91147,-3.31287 4.86663,-0.60553 4.86664,-0.60163 z m 18.70038,-10.79023 -2.58773,3.42615 -2.58771,3.42226 -3.34605,-5.7897 4.26074,-0.5235 4.26075,-0.5313 z m 18.65738,-10.76288 -2.189,2.89483 -2.1851,2.89095 -1.41896,-2.44948 -1.41502,-2.4495 3.60403,-0.44926 3.60405,-0.44536 z m 18.69648,-10.79024 -3.63532,4.81302 -1.1805,-2.03928 -1.17658,-2.03538 2.99814,-0.37504 2.99426,-0.36724 z m 18.6222,-10.74336 -1.39158,1.84396 -1.39549,1.84394 -0.90298,-1.56266 -0.89905,-1.55877 2.29065,-0.28519 2.29063,-0.28128 z m 18.70038,-10.79023 -1.02413,1.35562 -1.02415,1.35951 -0.66454,-1.14857 -0.6606,-1.14855 1.68476,-0.20705 1.68476,-0.21096 z m 18.65739,-10.7629 -0.62544,0.82432 -0.62543,0.8282 -0.40261,-0.69929 -0.40654,-0.7032 2.05612,-0.25003 z m 18.69647,-10.79023 -0.25799,0.33989 -0.25407,0.33986 -0.16418,-0.28908 -0.16419,-0.28519 0.42217,-0.0547 z m -486.24903,306.13877 -1.39158,1.84396 -1.39549,1.84395 -0.90296,-1.56267 -0.89906,-1.55878 2.29063,-0.28518 2.29456,-0.28128 z m 24.64589,-14.22029 -11.03105,14.59533 -3.56885,-6.17255 -3.56495,-6.17253 9.08437,-1.12513 9.08048,-1.12123 z m 21.47964,-12.3959 -7.2511,9.5948 -7.24327,9.5909 -4.69072,-8.11417 -4.69074,-8.11807 11.94182,-1.48064 11.93792,-1.47282 z m 19.18509,-11.0676 -7.24718,9.5948 -7.24719,9.59088 -4.69072,-8.11808 -4.69074,-8.11415 11.93792,-1.48063 11.93791,-1.47673 z m 19.18508,-11.07151 -7.25108,9.59479 -7.24718,9.59089 -9.38147,-16.22833 11.94183,-1.48063 z m 19.18511,-11.07152 -7.24719,9.59479 -7.24718,9.59089 -9.38146,-16.22833 11.94182,-1.48062 11.93791,-1.47673 z m 19.18508,-11.07153 -7.25108,9.5948 -7.24328,9.59088 -4.69072,-8.11415 -4.68682,-8.11417 11.93399,-1.47673 11.93791,-1.47671 z m 19.18509,-11.07151 -7.24719,9.59479 -7.24716,9.59089 -4.69074,-8.11417 -4.68682,-8.11415 11.93791,-1.48063 11.93791,-1.47673 z m 19.18508,-11.07151 -7.24327,9.5948 -7.25107,9.59087 -4.69074,-8.11416 -4.68682,-8.11415 11.93401,-1.48063 z m 18.80986,-10.84884 -6.96184,9.21584 -6.96574,9.21586 -4.5031,-7.79773 -4.50701,-7.79772 z m 18.69646,-10.79024 -13.18877,17.45502 -4.26075,-7.38361 -4.26465,-7.37971 10.85905,-1.34779 10.86295,-1.34391 z m 18.66129,-10.76679 -12.39915,16.40803 -4.00669,-6.94215 -4.00666,-6.93826 10.20626,-1.26576 z m 18.65739,-10.7668 -5.79697,7.67662 -5.80085,7.6727 -3.74869,-6.49288 -3.75259,-6.49289 9.54954,-1.17983 z m 18.66129,-10.76289 -5.40217,7.14531 -5.40216,7.14922 -3.49068,-6.04363 -3.49458,-6.04754 8.89674,-1.09777 z m 18.69647,-10.79022 -5.03081,6.65696 -5.03471,6.66088 -3.25225,-5.63342 -3.25614,-5.63343 16.57391,-2.0471 z m 18.6613,-10.76682 -4.63601,6.13348 -4.6321,6.12958 -2.99816,-5.18415 -2.99425,-5.18416 7.63026,-0.94933 7.63026,-0.9415 z m 18.65738,-10.76678 -8.46678,11.21214 -5.48033,-9.48539 6.97355,-0.86338 6.97356,-0.86727 z m 18.69647,-10.78633 -3.86204,5.11774 -3.86593,5.11774 -5.00346,-8.65719 6.36767,-0.78915 z m 18.66128,-10.76681 -6.93444,9.18069 -4.48748,-7.76646 z m 18.66131,-10.76678 -3.07243,4.05902 -3.07242,4.06686 -3.9715,-6.87575 5.05426,-0.62898 5.05427,-0.62506 z m 18.69647,-10.78634 -2.705,3.57071 -2.69715,3.57069 -1.74339,-3.02376 -1.75121,-3.02377 8.89675,-1.10169 z m 18.6574,-10.7668 -4.60475,6.09442 -1.49322,-2.57842 -1.4893,-2.57838 3.79168,-0.46881 3.78775,-0.46881 z m 18.66128,-10.76679 -1.90366,2.5198 -1.90756,2.51982 -1.2274,-2.12914 -1.23523,-2.13305 3.13887,-0.38676 3.13498,-0.38676 z m 18.69647,-10.79024 -3.07243,4.06294 -0.98896,-1.71893 -0.99287,-1.71503 2.52908,-0.31644 z m 18.62221,-10.74335 -1.10623,1.4689 -1.11015,1.46891 -0.71534,-1.2423 -0.71924,-1.23843 1.82548,-0.23049 z m 18.69648,-10.78633 -0.73881,0.97667 -0.73487,0.97667 -0.47689,-0.82431 -0.47689,-0.82821 1.21568,-0.14846 1.21959,-0.14846 z m 18.66128,-10.76681 -0.34399,0.44928 -0.34399,0.45317 -0.4378,-0.7657 1.12578,-0.14064 z m -446.60062,283.2613 -2.44308,3.23473 -2.447,3.23862 -1.57922,-2.73857 -1.58311,-2.73859 4.0262,-0.49615 z m 24.41526,-14.09138 -6.39504,8.46576 -6.39892,8.46186 -8.27133,-14.32187 10.53068,-1.30483 10.53461,-1.30483 z m 20.31477,-11.72003 -7.24717,9.5948 -7.24719,9.59087 -9.38145,-16.22831 11.9418,-1.48063 z m 19.18509,-11.07152 -7.24717,9.59479 -7.24719,9.5909 -4.69073,-8.11807 -4.68681,-8.11416 11.93791,-1.48064 11.93789,-1.47671 z m 19.18509,-11.07152 -7.25108,9.5948 -7.24327,9.59089 -4.69074,-8.11806 -4.68683,-8.11417 11.93401,-1.47674 11.93791,-1.48062 z m 19.18509,-11.0715 -7.24717,9.59478 -7.24718,9.59089 -4.69074,-8.11807 -4.68682,-8.11417 11.93792,-1.47673 11.9379,-1.48063 z m 19.18509,-11.07152 -7.24326,9.5948 -7.25109,9.59087 -4.69074,-8.11808 -4.68681,-8.11415 11.93401,-1.47672 11.93789,-1.48063 z m 18.95839,-10.93869 -7.0791,9.36429 -7.07909,9.36821 -4.57346,-7.92273 -4.57738,-7.92665 11.65255,-1.44157 z m 18.66128,-10.76681 -13.36077,17.68163 -8.63875,-14.96258 z m 18.69647,-10.79022 -6.31294,8.35246 -6.30902,8.35247 -8.16188,-14.13435 10.38997,-1.28529 10.39387,-1.28921 z m 18.65739,-10.76681 -5.91031,7.82898 -5.91034,7.82117 -3.82685,-6.61791 -3.82294,-6.62181 9.73718,-1.20716 z m 18.66131,-10.76288 -5.51163,7.29766 -5.51942,7.29767 -3.56495,-6.17645 -3.56888,-6.17255 18.16095,-2.25024 z m 18.66127,-10.7668 -5.12071,6.77027 -5.11681,6.77417 -3.31086,-5.73109 -3.30697,-5.72718 z m 18.69648,-10.79023 -4.74936,6.28583 -4.74546,6.28193 -3.07243,-5.31697 -3.06852,-5.31699 15.63577,-1.93772 z m 18.65738,-10.7668 -4.34674,5.75844 -4.35065,5.75452 -5.6289,-9.74324 7.1651,-0.88681 7.15728,-0.88682 z m 18.7004,-10.78633 -3.98322,5.26619 -3.97931,5.2701 -2.57599,-4.45751 -2.576,-4.4536 6.55138,-0.8126 6.55531,-0.81258 z m 18.65738,-10.76681 -3.5806,4.74272 -3.5845,4.73879 -2.318,-4.01215 -2.3141,-4.00825 5.8986,-0.73055 5.89468,-0.73056 z m 18.66129,-10.76678 -3.18579,4.21529 -3.18189,4.2114 -2.0561,-3.56289 -2.06002,-3.56679 10.49161,-1.29701 z m 18.65738,-10.7668 -5.56634,7.37581 -3.60404,-6.23506 4.58519,-0.56647 4.58909,-0.56647 z m 18.69647,-10.78633 -2.41181,3.19956 -2.41574,3.19958 -1.56749,-2.70733 -1.55966,-2.70342 3.97539,-0.49224 3.97931,-0.49224 z m 18.66129,-10.76679 -2.01701,2.67217 -2.01701,2.66824 -1.30168,-2.25805 -1.30559,-2.26196 6.64521,-0.8204 z m 18.6613,-10.7668 -1.62222,2.14476 -1.62221,2.14867 -1.0476,-1.8166 -1.04758,-1.8127 z m 18.65738,-10.7668 -2.43919,3.23473 -0.78959,-1.36733 -0.79352,-1.36735 4.0262,-0.50005 z m 18.6613,-10.76289 -1.64958,2.17993 -0.53162,-0.92198 -0.53161,-0.92588 1.3564,-0.168 z m 18.69646,-10.79023 -0.45343,0.60162 -0.45735,0.60554 -0.29318,-0.51178 -0.29316,-0.50395 0.74661,-0.0937 0.75051,-0.0937 z m 18.66131,-10.7668 -0.0586,0.0741 -0.0547,0.0742 -0.0391,-0.0624 -0.0351,-0.0624 z m -449.1219,284.71457 -0.25408,0.33987 -0.258,0.33989 -0.16416,-0.28911 -0.16419,-0.28518 0.42216,-0.0546 z m 23.59048,-13.60695 -3.5845,4.73879 -3.5806,4.7388 -4.636,-8.01649 5.89466,-0.73055 5.90252,-0.72665 z m 23.66082,-13.65384 -6.96182,9.21585 -6.96966,9.21584 -4.50701,-7.79771 -4.49919,-7.79773 z m 19.56034,-11.29029 -7.24717,9.59479 -7.24717,9.5909 -4.69074,-8.11808 -4.68683,-8.11026 11.934,-1.48062 11.93791,-1.48063 z m 19.1851,-11.07151 -7.24718,9.59479 -7.24718,9.59089 -4.69074,-8.11807 -4.6868,-8.11027 23.8758,-2.96126 z m 19.18509,-11.06762 -7.24328,9.5948 -7.24718,9.59089 -4.69073,-8.11807 -4.68682,-8.11416 z m 19.11082,-11.02463 -7.18855,9.51666 -7.19637,9.51666 -4.65164,-8.04776 -4.65164,-8.05556 11.8441,-1.46499 11.84019,-1.46501 z m 18.6613,-10.7668 -13.5875,17.98633 -4.39364,-7.60628 -4.39365,-7.61022 11.18348,-1.38296 11.18739,-1.38687 z m 18.69646,-10.79023 -6.42631,8.50093 -6.42237,8.50093 -8.31042,-14.38439 10.5776,-1.30874 10.5776,-1.31264 z m 18.6613,-10.76681 -6.02759,7.97744 -6.02368,7.97744 -3.90113,-6.74684 -3.89721,-6.74683 9.92089,-1.2306 z m 18.65738,-10.76287 -11.25775,14.90004 -3.63923,-6.30145 -3.64314,-6.30147 9.2681,-1.14857 9.26812,-1.14466 z m 18.66131,-10.76681 -5.23019,6.92265 -5.23016,6.9187 -6.77027,-11.7122 8.6153,-1.06262 z m 18.65738,-10.76679 -4.82754,6.39523 -4.83147,6.39913 -6.25431,-10.82149 7.95861,-0.98058 7.95471,-0.98447 z m 18.70038,-10.79024 -4.46402,5.9108 -4.46011,5.9069 -2.8887,-4.99663 -2.88479,-4.99274 14.69762,-1.8205 z m 18.65737,-10.76289 -4.06529,5.37949 -4.06922,5.37951 -2.62681,-4.55519 -2.6268,-4.55128 6.69602,-0.82822 6.6921,-0.82822 z m 18.69648,-10.79023 -7.38791,9.78231 -2.38836,-4.13717 -2.38837,-4.14107 6.08624,-0.75008 6.08622,-0.75399 z m 18.6222,-10.74335 -3.26787,4.32468 -3.26788,4.3286 -4.22949,-7.32111 5.38263,-0.66414 z m 18.69649,-10.79025 -2.89655,3.84027 -2.90043,3.83635 -1.87629,-3.24644 -1.87629,-3.24254 4.77673,-0.59382 z m 18.66129,-10.76289 -5.00346,6.61792 -1.61439,-2.80109 -1.6183,-2.80108 4.11611,-0.51179 4.12004,-0.50785 z m 18.66129,-10.76678 -4.20602,5.56309 -1.36032,-2.35181 -1.36031,-2.35572 3.46332,-0.42974 z m 18.69647,-10.79024 -1.73558,2.29712 -1.73166,2.29321 -2.24372,-3.88323 2.85352,-0.35161 z m 18.65737,-10.7668 -1.33294,1.76971 -1.33686,1.76973 -0.86778,-1.49626 -0.86388,-1.49624 2.20073,-0.27347 2.19683,-0.27347 z m 18.66131,-10.76289 -0.93815,1.23841 -0.94206,1.24232 -1.21179,-2.10178 1.54405,-0.19143 1.54403,-0.18752 z m 18.66129,-10.7668 -0.54334,0.71493 -0.53945,0.71491 -0.3518,-0.60552 -0.3479,-0.60164 1.78249,-0.21877 z m 18.69647,-10.79024 -0.34399,0.45319 -0.11337,-0.18753 -0.10944,-0.19143 0.27754,-0.0312 0.28145,-0.0351 z m -410.14582,262.22774 -0.82478,1.09387 -0.82088,1.08997 -0.53554,-0.92197 -0.5316,-0.92589 z m 24.30188,-14.02105 -4.69073,6.20771 -4.69072,6.2038 -3.03335,-5.25057 -3.03333,-5.25448 7.72406,-0.95323 7.72018,-0.95713 z m 22.53508,-13.00141 -14.43964,19.11145 -4.67119,-8.0829 -4.67119,-8.08682 11.891,-1.46892 z m 19.22026,-11.09497 -7.24327,9.5948 -7.25108,9.59089 -4.69074,-8.11416 -4.68682,-8.11807 11.93401,-1.47282 11.93399,-1.48064 z m 19.18509,-11.0715 -7.24328,9.59479 -7.25107,9.59088 -4.69074,-8.11806 -4.68682,-8.11418 11.93791,-1.47671 11.934,-1.48064 z m 18.73556,-10.80978 -13.8142,18.28325 -4.46792,-7.73522 -4.47183,-7.73131 11.37892,-1.41031 z m 18.66131,-10.76679 -6.5084,8.61813 -6.50839,8.6103 -4.21384,-7.28593 -4.20994,-7.28596 10.71833,-1.32437 10.72224,-1.32826 z m 18.69646,-10.78633 -6.14094,8.12198 -6.13704,8.12589 -3.9715,-6.87185 -3.96758,-6.87965 20.22488,-2.50027 z m 18.62221,-10.74726 -11.42975,15.12664 -7.38791,-12.79826 9.40883,-1.16028 z m 18.65738,-10.7629 -5.31226,7.03202 -5.31616,7.03201 -3.43595,-5.95377 -3.44379,-5.94986 8.75604,-1.08606 8.75212,-1.08214 z m 18.70038,-10.79023 -4.94872,6.54369 -4.9448,6.54758 -3.19753,-5.53966 -3.20142,-5.53967 8.15015,-1.00792 8.14232,-1.01183 z m 18.65738,-10.7668 -4.54609,6.0202 -4.55001,6.02018 -2.93954,-5.0904 -2.93952,-5.09431 7.48563,-0.92588 z m 18.69648,-10.78632 -4.17866,5.53185 -4.17866,5.52794 -5.40216,-9.36039 13.75948,-1.70331 z m 18.6613,-10.76681 -3.77996,5.00446 -3.77995,5.00055 -2.44699,-4.23094 -2.44309,-4.23092 6.22303,-0.77353 z m 18.65737,-10.76678 -3.37731,4.47704 -3.38515,4.47705 -2.18901,-3.78556 -2.18902,-3.78948 5.57416,-0.69148 5.57025,-0.68757 z m 18.6613,-10.7668 -5.97286,7.8993 -1.93102,-3.34413 -1.92711,-3.34019 4.91354,-0.60554 z m 18.69647,-10.78634 -2.61508,3.46132 -2.61509,3.45741 -1.69256,-2.9261 -1.69257,-2.93 z m 18.66131,-10.76679 -2.22029,2.93392 -2.21638,2.9339 -2.86916,-4.96147 3.64705,-0.45318 3.65485,-0.44926 z m 18.69646,-10.79023 -3.69786,4.89115 -2.39228,-4.13326 3.04507,-0.37504 3.04117,-0.37894 z m 18.66129,-10.76681 -1.45022,1.9221 -1.45021,1.91816 -0.94205,-1.62516 -0.93815,-1.62518 4.77671,-0.59382 z m 18.65738,-10.76287 -1.0515,1.39076 -1.05151,1.39469 -0.67624,-1.17591 -0.68408,-1.17982 1.73558,-0.21486 1.73166,-0.21097 z m 18.6613,-10.76681 -1.30559,1.72675 -0.84433,-1.46109 2.15773,-0.26566 z m 18.69647,-10.79023 -0.28535,0.37894 -0.28145,0.37504 -0.36744,-0.63287 0.46907,-0.0625 0.46907,-0.0585 z m -370.82967,239.54558 -1.64957,2.18383 -1.64568,2.18384 -1.06713,-1.84395 -1.06715,-1.84786 5.43344,-0.67195 z m 24.63806,-14.22029 -5.7696,7.63755 -5.77351,7.63755 -3.72912,-6.46163 -3.73304,-6.45775 9.50655,-1.17981 9.50262,-1.17591 z m 21.13957,-12.20055 -7.24719,9.5948 -7.25108,9.59088 -4.69074,-8.11416 -4.68683,-8.11807 11.93793,-1.47673 11.93401,-1.47672 z m 18.84891,-10.87227 -6.99309,9.25101 -6.9931,9.25881 -4.52657,-7.82898 -4.52264,-7.83289 11.51575,-1.42593 11.51575,-1.42202 z m 18.69648,-10.79025 -6.62567,8.76659 -6.62174,8.76657 -4.28419,-7.41876 -4.28421,-7.41097 10.90986,-1.35171 10.90595,-1.3478 z m 18.65738,-10.76679 -6.22304,8.24309 -6.22694,8.23918 -4.0223,-6.96952 -4.02621,-6.96951 20.49849,-2.53932 z m 18.6613,-10.76288 -5.82434,7.70786 -5.82822,7.71178 -3.76823,-6.52023 -3.7682,-6.52807 9.59253,-1.18763 9.60037,-1.18762 z m 18.66129,-10.76681 -5.43343,7.18439 -5.42952,7.18828 -3.51024,-6.08269 -3.51413,-6.0788 z m 18.69647,-10.79023 -5.06208,6.69995 -5.05816,6.69603 -3.2757,-5.66467 -3.27178,-5.66859 z m 18.65738,-10.76679 -4.66337,6.16864 -4.66335,6.17254 -6.02761,-10.43864 7.67717,-0.95322 z m 18.69648,-10.78634 -4.28812,5.68031 -4.29202,5.68031 -2.77535,-4.80521 -2.77925,-4.80521 z m 18.66129,-10.76679 -3.89331,5.1529 -3.89721,5.14901 -2.52126,-4.35595 -2.51737,-4.35985 6.41067,-0.79304 6.41457,-0.79307 z m 18.6613,-10.76679 -3.49851,4.6255 -3.49458,4.62941 -2.2633,-3.91448 -2.26328,-3.9184 11.51575,-1.42203 z m 18.65739,-10.7668 -6.19959,8.20401 -4.01058,-6.93825 5.10507,-0.62896 5.10119,-0.62899 z m 18.66129,-10.76679 -2.705,3.5746 -2.69717,3.5707 -1.74339,-3.02376 -1.74729,-3.02378 4.44446,-0.55082 4.44839,-0.55085 z m 18.69646,-10.78634 -2.33363,3.08236 -2.33364,3.08628 -1.50495,-2.60966 -1.50493,-2.61356 7.67715,-0.95324 z m 18.66131,-10.7668 -1.93103,2.55887 -1.93491,2.55888 -1.25479,-2.16429 -1.25085,-2.16431 3.18187,-0.39457 3.18578,-0.39458 z m 18.69646,-10.79023 -1.56748,2.07053 -1.55968,2.07054 -1.01241,-1.75019 -1.00851,-1.75019 2.57599,-0.32035 2.576,-0.31644 z m 18.62221,-10.74336 -1.13749,1.50797 -1.13752,1.50408 -1.46977,-2.54715 1.87239,-0.23048 z m 18.69646,-10.78633 -0.77005,1.01183 -0.76615,1.01964 -0.49644,-0.86337 -0.49644,-0.85947 1.2665,-0.15626 1.26258,-0.15627 z m 18.65739,-10.76679 -0.73488,0.97667 -0.47689,-0.82821 z m -353.86486,229.75546 -0.0547,0.0741 -0.0586,0.0742 -0.0352,-0.0625 -0.0391,-0.0663 0.0937,-0.008 z m 22.75787,-13.13424 -2.75581,3.65274 -2.75972,3.64883 -1.78247,-3.08628 -1.78247,-3.09017 4.53827,-0.56256 4.53829,-0.55866 z m 24.07908,-13.88823 -6.45367,8.53608 -6.45366,8.54 -8.3495,-14.4469 10.62841,-1.31654 z m 19.56036,-11.2903 -13.47023,17.83007 -8.71693,-15.08758 11.09749,-1.37123 11.09357,-1.37126 z m 18.65737,-10.76678 -6.3403,8.39152 -6.3403,8.38764 -4.09657,-7.09452 -4.10049,-7.09842 10.44078,-1.29312 z m 18.6613,-10.76291 -11.88319,15.72828 -3.84249,-6.65697 -3.8425,-6.65306 9.7841,-1.21108 z m 18.66129,-10.76678 -5.54288,7.33282 -5.54288,7.33673 -3.58841,-6.2077 -3.5845,-6.2038 9.12739,-1.12903 z m 18.65738,-10.7668 -10.28833,13.61867 -3.32651,-5.75844 -3.33042,-5.76235 8.47458,-1.047 8.47068,-1.04696 z m 18.69649,-10.79024 -4.77283,6.3249 -4.77673,6.32101 -3.08806,-5.34825 -3.09198,-5.34432 15.7296,-1.94553 z m 18.66128,-10.76679 -8.75603,11.58719 -2.83397,-4.90287 -2.83009,-4.90288 14.41619,-1.78144 z m 18.69648,-10.78632 -8.01333,10.61051 -5.18327,-8.97753 6.59829,-0.8165 6.60222,-0.81648 z m 18.66128,-10.76681 -7.22372,9.55572 -2.33364,-4.0434 -2.33364,-4.0395 5.9455,-0.73837 z m 18.65739,-10.76679 -6.4263,8.50092 -4.1513,-7.18828 z m 18.6613,-10.76681 -5.62888,7.45395 -1.81767,-3.15269 -1.82156,-3.15269 4.636,-0.57428 z m 18.6613,-10.76288 -2.41574,3.19566 -2.41573,3.19956 -1.56358,-2.70341 -1.56358,-2.70733 3.97931,-0.49224 3.97932,-0.48834 z m 18.69646,-10.79023 -2.04828,2.70732 -2.04438,2.71123 -1.32514,-2.29322 -1.32122,-2.28931 z m 18.65738,-10.7668 -1.64566,2.18382 -1.64958,2.18383 -1.06323,-1.84394 -1.06714,-1.84396 2.71672,-0.33596 2.7128,-0.33597 z m 18.66129,-10.76679 -1.25477,1.65642 -1.25086,1.65252 -0.80915,-1.39858 -0.80914,-1.40251 4.12001,-0.50785 z m 18.6574,-10.7629 -0.85216,1.12904 -0.85214,1.12511 -0.55118,-0.95323 -0.55506,-0.95322 1.40722,-0.17581 z m 18.70037,-10.79024 -0.4847,0.6368 -0.48472,0.64068 -0.31272,-0.53911 -0.31663,-0.53913 0.80135,-0.10157 z m 18.65738,-10.76679 -0.086,0.1133 -0.0859,0.10938 -0.0547,-0.0937 -0.0547,-0.0977 0.28145,-0.0391 z m -333.92925,218.24639 -0.33616,0.45318 -0.34399,0.44926 -0.21891,-0.38285 -0.22281,-0.37894 0.56289,-0.0702 0.55898,-0.0742 z m 23.59047,-13.60694 -3.67049,4.85208 -3.6666,4.856 -2.37273,-4.10591 -2.36882,-4.10591 6.03933,-0.74619 z m 22.64059,-13.06783 -6.27775,8.31341 -6.28168,8.31731 -4.06138,-7.03592 -4.06531,-7.03202 z m 18.88411,-10.89573 -6.05105,8.01259 -6.05495,8.0126 -3.91676,-6.78199 -3.91285,-6.77808 9.96781,-1.23451 9.97172,-1.23061 z m 18.62221,-10.74726 -5.62887,7.45394 -5.62498,7.45004 -3.64314,-6.30538 -3.64313,-6.29757 9.27201,-1.14856 9.26419,-1.14855 z m 18.69646,-10.78633 -5.25752,6.96171 -5.25753,6.95777 -3.40469,-5.88735 -3.40469,-5.89127 8.66221,-1.07041 8.66222,-1.07434 z m 18.66129,-10.76678 -4.85881,6.43428 -4.86272,6.43431 -3.1428,-5.442 -3.14279,-5.4459 8.00552,-0.9884 8.00551,-0.99229 z m 18.69649,-10.78634 -4.49138,5.94206 -4.49138,5.94595 -5.80868,-10.05579 7.39571,-0.91804 z m 18.66128,-10.76679 -4.09266,5.41465 -4.09265,5.41856 -5.29272,-9.16506 6.73903,-0.83603 z m 18.69648,-10.79023 -3.72522,4.93021 -3.72132,4.92632 -2.40791,-4.17233 -2.40791,-4.16842 6.12922,-0.75789 6.13314,-0.76181 z m 18.62221,-10.74337 -3.29914,4.36376 -3.29524,4.35985 -2.13039,-3.6918 -2.13427,-3.69181 5.43343,-0.66805 5.42952,-0.67195 z m 18.66129,-10.76679 -2.90044,3.83636 -2.90044,3.84025 -1.87629,-3.25035 -1.87237,-3.24254 4.77281,-0.58991 z m 18.69647,-10.78633 -2.533,3.34802 -2.52908,3.34802 -1.63785,-2.82844 -1.63394,-2.83233 4.16694,-0.51959 4.16693,-0.51178 z m 18.69647,-10.79024 -2.16164,2.85969 -2.15775,2.85968 -2.79878,-4.83646 3.56104,-0.43754 3.55713,-0.44146 z m 18.65738,-10.76679 -3.52587,4.66457 -1.13749,-1.97287 -1.14141,-1.97679 2.90435,-0.35551 2.90042,-0.36331 z m 18.6613,-10.7668 -1.36422,1.80879 -1.36423,1.80488 -0.88341,-1.5275 -0.88342,-1.52361 z m 18.66129,-10.76289 -1.93101,2.55496 -0.62543,-1.08214 -0.62934,-1.07824 1.59093,-0.19924 z m 18.69648,-10.79024 -0.59807,0.78915 -0.59416,0.78916 -0.38699,-0.66414 -0.38699,-0.66804 0.98506,-0.12111 0.98505,-0.12502 z m 18.65738,-10.76679 -0.39872,0.53131 -0.12899,-0.22659 -0.1251,-0.22268 0.32446,-0.0391 z m -294.95318,195.76349 -0.9108,1.20325 -0.90686,1.20325 -0.59026,-1.02355 -0.59025,-1.01574 1.50104,-0.18752 1.49713,-0.1836 z m 23.58655,-13.61087 -4.23729,5.60609 -4.23338,5.60997 -5.48035,-9.4854 6.97356,-0.86728 6.97355,-0.86338 z m 21.17865,-12.21616 -5.73832,7.59847 -5.74224,7.59849 -7.42698,-12.86078 18.91145,-2.33618 z m 18.66129,-10.7668 -5.34352,7.07499 -5.34743,7.06718 -6.91101,-11.96225 8.80294,-1.08996 8.79902,-1.08605 z m 18.69648,-10.79024 -9.95217,13.16549 -3.21705,-5.57091 -3.21707,-5.56702 8.18924,-1.01182 8.19314,-1.01574 z m 18.69649,-10.78634 -4.60084,6.09442 -4.60473,6.09441 -5.95724,-10.31361 7.58727,-0.93761 7.58334,-0.93761 z m 18.66128,-10.76678 -4.20994,5.567 -4.20601,5.57093 -2.72062,-4.70755 -2.72064,-4.71536 6.92665,-0.85555 6.93056,-0.85557 z m 18.69647,-10.79024 -3.83466,5.07868 -3.83468,5.08257 -2.48218,-4.29733 -2.4861,-4.29343 6.32469,-0.78525 6.31684,-0.78134 z m 18.6222,-10.74335 -3.4086,4.51611 -3.4125,4.51611 -2.20465,-3.82071 -2.20854,-3.81684 5.61715,-0.6993 z m 18.66131,-10.76681 -3.01382,3.99263 -3.00988,3.98872 -3.90112,-6.75075 4.96436,-0.61334 z m 18.69647,-10.78632 -2.64246,3.49648 -2.64243,3.50037 -1.71213,-2.96126 -1.71212,-2.95736 4.35456,-0.53911 4.35458,-0.53522 z m 18.65737,-10.7668 -2.24373,2.97298 -2.24764,2.97298 -1.45022,-2.5159 -1.45412,-2.51591 z m 18.70039,-10.79023 -1.87629,2.48073 -1.8763,2.48464 -1.21569,-2.09787 -1.21175,-2.1018 3.08805,-0.38285 3.09198,-0.38677 z m 18.65737,-10.7629 -1.47757,1.95334 -1.47759,1.95725 -0.95377,-1.65643 -0.95769,-1.65253 2.43527,-0.30082 z m 18.66131,-10.76678 -1.08279,1.42983 -1.07886,1.42985 -0.69971,-1.21108 -0.69578,-1.21106 z m 18.65738,-10.76681 -0.68016,0.90244 -0.68406,0.90245 -0.44172,-0.7618 -0.44171,-0.76572 2.24374,-0.27346 z m 18.66129,-10.76678 -0.28146,0.37504 -0.28534,0.37893 -0.18372,-0.31644 -0.17981,-0.31643 0.46517,-0.0624 0.46906,-0.0547 z m -255.83249,173.18679 -1.55965,2.06664 -1.5675,2.06663 -1.00851,-1.75019 -1.01242,-1.7502 2.576,-0.32034 2.57599,-0.31644 z m 23.13703,-13.353 -4.54609,6.02018 -4.55002,6.02018 -2.93952,-5.0904 -2.93954,-5.09429 7.48564,-0.92589 z m 19.90044,-11.48564 -5.08554,6.73511 -5.08945,6.73512 -6.58266,-11.39188 8.38078,-1.03526 8.37687,-1.03918 z m 18.66128,-10.7668 -4.69073,6.20772 -4.68681,6.2077 -3.03335,-5.25447 -3.03725,-5.25058 15.44814,-1.91427 z m 18.69649,-10.78631 -4.3194,5.71937 -4.31937,5.71546 -2.79489,-4.83647 -2.79882,-4.84037 7.1182,-0.879 z m 18.66128,-10.76681 -7.84914,10.38395 -2.53691,-4.39502 -2.53691,-4.3911 6.45757,-0.80086 6.46149,-0.80088 z m 18.65739,-10.76678 -3.52586,4.66455 -3.52197,4.66457 -2.28281,-3.94573 -2.27892,-3.94574 z m 18.66128,-10.76681 -3.12715,4.14108 -3.12715,4.13716 -2.02092,-3.50038 -2.02484,-3.50428 10.30397,-1.27358 z m 18.65739,-10.76289 -2.72844,3.61366 -2.72844,3.60978 -1.76684,-3.05111 -1.76685,-3.05501 4.4953,-0.55476 4.49527,-0.55866 z m 18.70039,-10.79023 -4.722,6.24286 -1.52449,-2.64091 -1.5284,-2.64092 3.88939,-0.48051 z m 18.65738,-10.7668 -1.95838,2.59794 -1.96229,2.59403 -2.533,-4.39109 6.45758,-0.79698 z m 18.69648,-10.78633 -3.18189,4.21139 -1.02804,-1.78144 -1.02806,-1.77754 5.23799,-0.64851 z m 18.6222,-10.74336 -1.16487,1.53922 -1.16487,1.54315 -0.75051,-1.30483 -0.75444,-1.30093 3.83859,-0.47661 z m 18.70038,-10.79023 -0.80133,1.05481 -0.79743,1.05479 -0.51208,-0.89072 -0.51597,-0.89072 1.31341,-0.16017 1.3134,-0.16409 z m 18.6574,-10.7668 -0.39873,0.5274 -0.39872,0.52349 -0.25799,-0.44536 -0.25799,-0.44927 1.31343,-0.16407 z m -238.75041,163.33026 -0.086,0.10939 -0.0859,0.11329 -0.0547,-0.0977 -0.0586,-0.0976 0.14072,-0.0117 0.14072,-0.0195 z m 21.96824,-12.67716 -2.18901,2.89485 -2.1851,2.89484 -1.41893,-2.44947 -1.41505,-2.44949 3.60403,-0.44927 3.60406,-0.44535 z m 22.19497,-12.80997 -4.46401,5.90688 -4.4601,5.9069 -5.77741,-9.99329 7.34881,-0.91025 z m 19.11083,-11.02465 -4.40538,5.82877 -4.40929,5.82875 -2.84961,-4.93023 -2.85352,-4.93412 7.25889,-0.89463 z m 18.69647,-10.79023 -4.03794,5.34433 -4.03793,5.34042 -2.60727,-4.52002 -2.61508,-4.51611 6.65303,-0.82431 z m 18.65738,-10.76681 -3.63531,4.81694 -3.63923,4.81694 -2.35318,-4.07467 -2.34927,-4.07076 5.98851,-0.74227 5.99239,-0.74226 z m 18.62221,-10.74334 -3.21314,4.25045 -3.20925,4.25047 -2.07956,-3.59413 -2.07564,-3.59415 z m 18.70039,-10.78633 -5.69143,7.52425 -1.8372,-3.18003 -1.83721,-3.18785 z m 18.65738,-10.76681 -2.4431,3.23473 -2.44698,3.23864 -1.57921,-2.73858 -1.58314,-2.73858 4.02622,-0.49615 z m 18.69646,-10.79023 -4.15129,5.49279 -1.34077,-2.32448 -1.34467,-2.32446 3.42033,-0.42583 3.4164,-0.42191 z m 18.66129,-10.7668 -1.67692,2.2229 -1.67694,2.219 -1.08668,-1.87521 -1.08278,-1.87911 2.75971,-0.34379 z m 18.66131,-10.76288 -1.28214,1.69549 -1.27822,1.68769 -0.82477,-1.42985 -0.8287,-1.42983 2.1069,-0.26175 2.10693,-0.25786 z m 18.65738,-10.7668 -0.87951,1.1642 -0.87951,1.16808 -1.14142,-1.97678 1.45023,-0.17579 z m 18.69648,-10.79024 -0.50818,0.67978 -0.51206,0.67584 -0.33226,-0.57428 -0.33227,-0.57037 0.84435,-0.10548 z m -200.18869,141.07784 -0.34399,0.44928 -0.34399,0.45316 -0.2189,-0.38284 -0.2189,-0.38677 1.12578,-0.14063 z m 22.19107,-12.80608 -2.61118,3.46132 -2.61899,3.45741 -1.69258,-2.9261 -1.68866,-2.93001 4.30766,-0.5313 z m 21.10439,-12.18099 -4.0614,5.37948 -4.06531,5.37949 -2.63071,-4.55128 -2.62681,-4.55127 6.696,-0.82821 6.69212,-0.82821 z m 18.77464,-10.83323 -3.75648,4.9693 -3.7526,4.96538 -2.42745,-4.20358 -2.42356,-4.20359 6.18004,-0.7618 z m 18.65739,-10.76288 -3.35388,4.43799 -3.35388,4.44188 -4.33893,-7.50863 5.52335,-0.68758 z m 18.66128,-10.7668 -2.95515,3.91449 -2.95908,3.91059 -3.82294,-6.61792 4.86664,-0.60553 z m 18.65739,-10.76679 -5.11289,6.77417 -1.65349,-2.86749 -1.65739,-2.86361 4.21382,-0.51959 z m 18.69647,-10.79025 -2.18509,2.89485 -2.18901,2.89876 -1.41504,-2.4495 -1.41895,-2.45338 z m 18.66131,-10.76288 -1.79031,2.36744 -1.78638,2.37136 -1.16097,-2.00412 -1.15704,-2.00413 2.94735,-0.36723 z m 18.66128,-10.7668 -2.79099,3.6879 -0.89907,-1.56266 -0.90294,-1.55876 2.29455,-0.28519 2.29454,-0.28129 z m 18.65739,-10.7668 -0.99288,1.32047 -0.99678,1.31264 -1.28995,-2.22682 1.64177,-0.20704 1.63393,-0.19925 z m 18.43457,-10.63786 -0.42608,0.56256 -0.42606,0.56646 -0.27363,-0.47661 -0.27754,-0.47661 0.6997,-0.0859 0.70361,-0.0859 z m -161.22045,118.59492 -0.70751,0.93761 -0.71533,0.9376 -0.91469,-1.59392 1.16877,-0.14455 1.17268,-0.14456 z m 21.93308,-12.65762 -2.78706,3.6879 -2.78317,3.6879 -1.80593,-3.11752 -1.79812,-3.11754 9.1782,-1.13293 z m 20.04897,-11.57158 -3.43985,4.55519 -3.43988,4.55127 -2.2281,-3.85197 -2.22418,-3.85199 5.66404,-0.69929 z m 18.65739,-10.76288 -3.04116,4.02387 -3.04115,4.02778 -1.96621,-3.40272 -1.9701,-3.40661 5.01128,-0.62116 5.00734,-0.61726 z m 18.70038,-10.79024 -5.34744,7.07109 -1.72775,-2.99253 -1.73165,-2.9886 4.40146,-0.54694 4.40147,-0.54302 z m 18.65739,-10.7668 -2.27499,3.01205 -2.27112,3.00814 -1.47367,-2.54715 -1.47367,-2.54324 3.74869,-0.4649 3.74085,-0.461 z m 18.69648,-10.78633 -1.90367,2.51981 -1.90365,2.52371 -1.23523,-2.13304 -1.23132,-2.12915 6.26996,-0.77353 z m 18.66128,-10.76679 -1.50493,1.9924 -1.50885,1.99241 -0.96943,-1.6877 -0.97724,-1.68767 2.48218,-0.30472 2.47827,-0.30864 z m 18.58312,-10.71992 -1.05151,1.39078 -1.0476,1.39468 -0.68015,-1.17981 -0.68015,-1.17592 1.73165,-0.21095 1.73167,-0.21878 z m 17.94595,-10.3527 -0.22671,0.29692 -0.0742,-0.12892 -0.0742,-0.12502 0.1837,-0.0234 0.18764,-0.0195 z m -121.94337,95.92841 -1.08279,1.42985 -1.07886,1.42985 -0.69971,-1.21108 -0.69578,-1.20716 1.77856,-0.22268 z m 21.36627,-12.32946 -2.72844,3.60976 -2.72844,3.61367 -3.53369,-6.11002 4.4953,-0.55476 4.49137,-0.55475 z m 19.22029,-11.09495 -2.75582,3.64883 -2.75971,3.65274 -1.78247,-3.09018 -1.78248,-3.08627 4.54218,-0.56257 z m 18.69646,-10.79023 -2.38837,3.16049 -2.38836,3.1644 -3.08807,-5.35215 7.8648,-0.97667 z m 18.66129,-10.76291 -3.9793,5.2662 -1.28605,-2.2268 -1.28603,-2.2307 3.27569,-0.40631 z m 18.69647,-10.79023 -1.6222,2.14477 -1.62222,2.14866 -1.04759,-1.81659 -1.04369,-1.81271 2.6659,-0.33206 z m 17.98114,-10.37613 -0.71142,0.94151 -0.71143,0.93761 -0.45734,-0.79697 -0.46126,-0.79696 1.17269,-0.14454 1.16876,-0.14846 z m -85.68011,75.00816 -0.086,0.10939 -0.0859,0.11329 -0.10947,-0.19533 0.13682,-0.0195 0.14072,-0.0156 z m 20.84248,-12.02865 -2.67372,3.53945 -1.72775,-2.99251 2.19683,-0.27347 2.20074,-0.27347 z m 20.53758,-11.84896 -2.36099,3.12145 -2.3571,3.12143 -1.52448,-2.64091 -1.52841,-2.64092 3.88158,-0.48051 3.8855,-0.48054 z m 18.84501,-10.87226 -4.20601,5.56311 -1.36033,-2.35182 -1.3603,-2.35573 3.46333,-0.42973 z m 18.51276,-10.68085 -1.59486,2.1057 -1.59093,2.1096 -1.02804,-1.78144 -1.02806,-1.77754 2.619,-0.32426 2.62289,-0.32425 z m 17.18763,-9.92296 -0.082,0.11329 -0.086,0.1133 -0.0586,-0.0977 -0.0547,-0.0977 0.13679,-0.0195 0.14465,-0.0195 z m -46.28972,52.27914 -0.45342,0.60161 -0.14463,-0.25002 -0.14855,-0.25394 0.37917,-0.0507 0.37134,-0.043 z m 20.69003,-11.93881 -1.36421,1.80488 -1.36421,1.8088 -1.76685,-3.05503 2.24764,-0.28127 z m 18.43459,-10.63787 -1.59485,2.1096 -1.03196,-1.78144 1.3095,-0.16409 1.31341,-0.16017 z m 0,0"
         fill-opacity="1"
         fill-rule="evenodd"
         id="path2"
         style="fill:#ffffff;fill-opacity:1;stroke-width:1.0004" /></g></g></svg>
